<?xml version="1.0" encoding="UTF-8"?>
<svg width="115px" height="118px" viewBox="0 0 115 118" version="1.1" xmlns="http://www.w3.org/2000/svg" xmlns:xlink="http://www.w3.org/1999/xlink">
    <!-- Generator: sketchtool 47.1 (45422) - http://www.bohemiancoding.com/sketch -->
    <title>7CEAEFBE-FDBB-460F-9BD3-32CCF8DA5B2D</title>
    <desc>Created with sketchtool.</desc>
    <defs></defs>
    <g id="Project" stroke="none" stroke-width="1" fill="none" fill-rule="evenodd" opacity="0.49926404">
        <g id="1.0-Home" transform="translate(-986.000000, -465.000000)" fill-rule="nonzero" fill="#FFFFFF">
            <g id="Blocco-eventi" transform="translate(261.000000, 464.000000)">
                <g id="001-spaghetti" transform="translate(776.291155, 66.347369) rotate(-22.000000) translate(-776.291155, -66.347369) translate(724.791155, 16.347369)">
                    <path d="M36.1738428,33.0339451 L75.9099413,33.0339451 C76.9891657,33.0419529 78.025579,32.6112954 78.7826016,31.8401478 C79.6524028,30.9889227 80.0934536,29.7900005 79.9833906,28.576344 C79.7461721,26.4236972 77.916794,24.803887 75.7569074,24.8339962 L36.1685713,24.9054254 C35.6125055,23.2308421 34.0498984,22.101107 32.2895293,22.1006265 L20.9236474,22.1006265 L19.9613549,18.9655875 C19.7401107,18.2439279 18.9771776,17.8388953 18.2573751,18.0607103 C17.5375727,18.2825253 17.1335823,19.0474268 17.3548265,19.7690864 L18.0706354,22.1006265 L15.4709761,22.1006265 L14.5086836,18.9655875 C14.2874394,18.2439279 13.5245063,17.8388953 12.8047038,18.0607103 C12.0849014,18.2825253 11.680911,19.0474268 11.9021552,19.7690864 L12.6178044,22.1006265 L10.4791636,22.1006265 C9.72629435,22.1006265 9.11607567,22.7125797 9.11607567,23.4672313 C9.11607567,24.2218828 9.72629435,24.833836 10.4791636,24.833836 L13.4566154,24.833836 L14.2955863,27.5672057 L10.4791636,27.5672057 C9.72629435,27.5672057 9.11607567,28.1789988 9.11607567,28.9338105 C9.11607567,29.6886222 9.72629435,30.3004153 10.4791636,30.3004153 L15.1342376,30.3004153 L15.9730486,33.0337849 L10.4791636,33.0337849 C9.72629435,33.0337849 9.11607567,33.645578 9.11607567,34.4003897 C9.11607567,35.1552014 9.72629435,35.7669945 10.4791636,35.7669945 L16.8120195,35.7669945 L17.3546668,37.5354288 C17.4977966,38.0022813 17.8784645,38.3570252 18.353221,38.4660909 C18.8279775,38.5751567 19.3247786,38.4220482 19.6564053,38.0644216 C19.988032,37.7067949 20.1041652,37.1987824 19.9610354,36.7319299 L19.6648716,35.7669945 L22.2918471,35.7669945 C22.8908837,37.6653147 23.6932734,39.4928462 24.6854378,41.2175582 C25.847569,43.1973974 29.005211,47.9541685 33.2209914,49.3633746 C34.5871145,49.7844227 35.6636233,50.8456114 36.1065909,52.2082123 C35.7460507,52.1875523 35.3855105,52.1668923 35.0153858,52.1668923 C29.5096797,52.0525414 24.1875186,54.1524971 20.2364325,57.9984653 C10.5729328,59.8629927 6.54005828,68.3657952 5.42153703,71.3001597 L4.08943924,71.3001597 C2.65686303,71.2998394 1.32859908,72.051448 0.588189766,73.2811201 C-0.152059804,74.5107921 -0.196468388,76.0393138 0.471257809,77.3099856 L7.78349865,91.2382074 C10.604562,96.633037 16.1819926,100.00927 22.2575023,99.9999809 L55.9525956,99.9999809 C62.0281053,100.00911 67.605536,96.6328769 70.4265993,91.2382074 L77.7388401,77.3099856 C78.4064066,76.0397943 78.3623175,74.5120733 77.6228666,73.2827216 C76.8834158,72.0533699 75.5561103,71.301441 74.1241731,71.3006402 C72.6770602,67.6862565 66.7370127,54.9002619 55.1217717,54.9002619 C52.419717,54.8796019 49.7492915,55.4824263 47.3170429,56.6624502 C44.896775,54.6886969 42.0559036,53.2995102 39.0143948,52.6028349 C38.6036952,49.8800354 36.695404,47.6228073 34.0836042,46.770461 C30.6478494,45.6226284 27.8203964,41.1696717 27.0362174,39.8323754 C26.2994822,38.5363991 25.6825543,37.1757201 25.1929417,35.7671546 L32.2890501,35.7671546 C34.0289721,35.766514 35.5818348,34.6737747 36.1738428,33.0339451 Z M24.1571674,60.3671615 C34.1240192,60.3671615 39.1950642,67.7578459 41.0571896,71.3004801 L37.9150427,71.3004801 C35.1019665,66.3164486 29.8681433,63.1971048 24.1571674,63.1005312 C18.6530588,63.0864375 13.6457513,66.2898628 11.33954,71.3004801 L8.34643337,71.3004801 C9.8306066,67.8265525 14.1719451,60.3671615 24.1571674,60.3671615 Z M34.4423872,60.3900637 C34.634079,60.3834973 34.8208186,60.3671615 35.0157052,60.3671615 C41.7234782,60.3671615 46.3670506,66.970843 48.6933895,71.3004801 L44.0849605,71.3004801 C41.9918466,66.8044417 38.6421933,63.0143676 34.4423872,60.3900637 Z M34.5970186,71.3003199 L14.463636,71.3003199 C16.4720861,67.8558609 20.1781263,65.7658349 24.1571674,65.8337407 C28.30937,65.8755412 32.1904886,67.9077512 34.5970186,71.3003199 Z M75.2871029,74.6936894 C75.5385386,75.1022454 75.5537141,75.6141016 75.3270387,76.0369115 L68.0147978,89.9651333 C65.6638585,94.4608513 61.015973,97.2744588 55.9529151,97.2669315 L22.2576621,97.2669315 C17.1946042,97.274619 12.5467187,94.4610115 10.1957793,89.9651333 L2.88337876,76.0369115 C2.6611761,75.6133008 2.67619195,75.1040071 2.92283531,74.69433 C3.16947867,74.2846529 3.61196709,74.0340099 4.08943924,74.0336896 L67.2469127,74.0336896 L67.2705547,74.0370528 L67.2854108,74.0336896 L74.1208185,74.0336896 C74.5992491,74.0288849 75.0438141,74.2804888 75.2871029,74.6936894 Z M57.7573733,71.3003199 C56.5829419,68.4628493 55.1077143,65.7600693 53.3570896,63.2387451 C53.9409507,63.1460152 54.5310417,63.0997304 55.1220912,63.100371 C59.7108718,63.100371 63.1673932,67.8979817 65.0424578,71.3003199 L57.7573733,71.3003199 Z M55.1220912,57.6337918 C64.051731,57.6337918 69.3120716,67.2152399 71.1489576,71.3003199 L68.1234231,71.3003199 C65.9374984,66.8838787 61.611655,60.3670013 55.1220912,60.3670013 C53.9128359,60.3626771 52.7086923,60.5252347 51.5435261,60.8500296 C50.9189305,60.0968194 50.2446548,59.356742 49.5258109,58.6414886 C51.3123778,57.9592273 53.2102857,57.6172958 55.1220912,57.6337918 Z M54.7748097,71.3003199 L51.7618949,71.3003199 C49.4643098,66.6311537 43.883205,57.6337918 35.0157052,57.6337918 C33.2566141,57.6254637 31.5067881,57.8892394 29.8277283,58.4155096 C28.2574535,57.9717194 26.6398948,57.7180334 25.0093969,57.6598971 C28.009053,55.790565 31.4844241,54.832196 35.0157052,54.9005823 C46.2053906,54.9004221 52.6708332,66.6824034 54.7748097,71.3003199 Z M17.1485982,27.5673659 L16.3097871,24.8339962 L18.9096062,24.8339962 L19.748577,27.5673659 L17.1485982,27.5673659 Z M18.8262203,33.0339451 L17.9874093,30.3005754 L20.5875478,30.3005754 L21.4265187,33.0339451 L18.8262203,33.0339451 L18.8262203,33.0339451 Z M25.4737701,33.0339451 L24.2793709,33.0339451 L23.4404,30.3005754 L25.4737701,30.3005754 C25.8414987,30.2996145 26.1930933,30.4509612 26.4454874,30.7189009 C26.69884,30.9687431 26.8400529,31.3109949 26.836858,31.6671802 C26.8362191,32.4216716 26.2263199,33.0331443 25.4737701,33.0339451 Z M25.4737701,27.5673659 L22.6014292,27.5673659 L21.7624584,24.8339962 L25.4736103,24.8339962 C25.841339,24.8330353 26.1929336,24.984382 26.4453277,25.2523217 C26.6986802,25.5021639 26.8398932,25.8444157 26.8366983,26.200601 C26.8362191,26.9550924 26.2263199,27.5665651 25.4737701,27.5673659 Z M28.5181543,28.9358925 C29.1919507,28.1850847 29.5641521,27.21054 29.5631937,26.200601 C29.5638327,25.73535 29.485878,25.2733021 29.3328441,24.8339962 L32.2893696,24.8339962 C32.877384,24.8352774 33.3987855,25.2137243 33.5832888,25.7736271 C33.9719438,26.8679679 35.015226,27.5904282 36.1738428,27.5673659 L75.7569074,27.5673659 C76.5000323,27.5404598 77.1473114,28.0715346 77.2677577,28.8072878 L77.2677577,28.8087292 C77.3068948,29.2188868 77.1551388,29.6240796 76.8564192,29.907074 C76.6073797,30.161881 76.2656892,30.3039387 75.9099413,30.3007356 L36.1738428,30.3007356 C35.015226,30.2776732 33.9716243,31.0004539 33.5832888,32.095115 C33.398466,32.6545373 32.8772242,33.032824 32.2893696,33.0339451 L29.3301285,33.0339451 C29.4846001,32.5949595 29.5633534,32.1327515 29.5630339,31.6673403 C29.5702224,30.6574013 29.1970625,29.6820558 28.5181543,28.9358925 Z" id="Shape"></path>
                </g>
            </g>
        </g>
    </g>
</svg>