<?xml version="1.0" encoding="UTF-8"?>
<svg width="77px" height="74px" viewBox="0 0 77 74" version="1.1" xmlns="http://www.w3.org/2000/svg" xmlns:xlink="http://www.w3.org/1999/xlink">
    <!-- Generator: sketchtool 47.1 (45422) - http://www.bohemiancoding.com/sketch -->
    <title>455BA79E-9261-4393-A2D7-45E91E7072B2</title>
    <desc>Created with sketchtool.</desc>
    <defs></defs>
    <g id="Project" stroke="none" stroke-width="1" fill="none" fill-rule="evenodd" opacity="0.5">
        <g id="1.0-Home" transform="translate(-799.000000, -490.000000)" fill-rule="nonzero" fill="#FFFFFF">
            <g id="Blocco-eventi" transform="translate(261.000000, 464.000000)">
                <g id="002-juice" transform="translate(538.000000, 26.000000)">
                    <path d="M35.8732568,52.7655262 C35.9402934,53.4714335 36.5302514,54 37.2206739,54 C37.2636785,54 37.3074059,53.9979992 37.3511333,53.9936339 C38.0963054,53.92197 38.6423553,53.2558962 38.5711629,52.505972 L34.5675794,10.331602 L58.4324206,10.331602 L55.6687428,39.444413 C55.5975503,40.1945191 56.143781,40.8604111 56.8887724,40.9320749 C57.6352093,41.0042845 58.2954564,40.4538914 58.3666489,39.7039672 L61.9938518,1.49384612 C62.0301708,1.11115378 61.9044095,0.731007862 61.6476467,0.446535034 C61.390884,0.162244094 61.0266097,0 60.6448084,0 L32.3551916,0 C31.9733903,0 31.6092967,0.162244094 31.3523533,0.446535034 C31.0955905,0.731007862 30.9698292,1.11133566 31.0061482,1.49384612 L35.8732568,52.7655262 Z M59.1544642,2.72831996 L58.6917131,7.60346396 L34.308829,7.60346396 L33.8460779,2.72831996 L59.1544642,2.72831996 Z" id="Shape"></path>
                    <path d="M74.3413608,46.4292186 C72.5154997,43.7309121 70.034814,42.244963 67.355769,42.244963 C65.5606085,42.244963 63.8465198,42.9234112 62.3673737,44.1750375 L62.3673737,41.3827069 C62.3673737,40.619084 61.7500517,40 60.9886022,40 C60.2271526,40 59.6098306,40.619084 59.6098306,41.3827069 L59.6098306,44.1750375 C58.1305007,42.9234112 56.416412,42.244963 54.6212515,42.244963 C51.929338,42.244963 49.466852,43.5476573 47.6875014,45.913008 C45.9544776,48.2167821 45,51.4169191 45,54.9236482 C45,55.5311175 45.0571731,56.1942637 45.1696808,56.8940978 C45.2910127,57.6479496 45.9984144,58.1593669 46.7506722,58.0387948 C47.5023784,57.9171166 48.013443,57.207327 47.8921111,56.4532908 C47.8027667,55.8987332 47.757543,55.3841818 47.757543,54.9236482 C47.757543,49.1795149 50.6441391,45.0103769 54.6210676,45.0103769 C56.5774525,45.0103769 58.460119,46.3670889 59.7864972,48.7328083 C60.0306317,49.1682689 60.4902222,49.4378045 60.9884183,49.4378045 C61.4866144,49.4378045 61.9460211,49.1682689 62.1903394,48.7328083 C63.5165338,46.3670889 65.3993841,45.0103769 67.3555852,45.0103769 C71.0887469,45.0103769 74.242457,49.9711607 74.242457,55.8432405 C74.242457,57.9401617 73.3034217,60.4257157 71.4516396,63.2307672 C70.8782545,64.0991072 70.1978767,64.8938871 69.4294414,65.5933525 C68.8654319,66.1064289 68.8231496,66.9808528 69.3347657,67.5464721 C69.6068433,67.8473492 69.9807661,68 70.3563435,68 C70.6866972,68 71.0183377,67.8814559 71.2823264,67.6412336 C72.2206264,66.7874582 73.0511984,65.8171666 73.750879,64.7570913 C75.9069099,61.4915062 77,58.4923227 77,55.8428718 C77.0001838,52.3064605 76.0558173,48.9630751 74.3413608,46.4292186 Z" id="Shape"></path>
                    <path d="M64.0436874,63.209977 L32.2679934,55.2661509 C29.7093779,54.6265201 27.003336,55.1522879 24.8441222,56.7086663 C23.3136603,57.8120436 22.161435,59.3616354 21.5109704,61.1323552 L14.9462963,55.3992424 C14.3688151,54.8951537 13.5054215,54.9699941 13.01771,55.5662665 C12.529816,56.1627274 12.602252,57.0547795 13.1793682,57.5588682 L17.9721879,61.7444628 L1.49618595,60.1501929 C0.743544662,60.0772377 0.0766588677,60.6486261 0.00604743061,61.4260613 C-0.064381548,62.2034964 0.488467688,62.8927066 1.24092652,62.9656618 L16.4475648,64.43702 L6.99676216,68.373021 C6.29593909,68.664842 5.95656629,69.4886518 6.23919449,70.2129257 C6.4541306,70.7639545 6.96702143,71.0985683 7.50874069,71.0985683 C7.67897447,71.0985683 7.85231004,71.0655783 8.01980693,70.9956393 L20.9752723,65.6001565 C21.19404,67.5341301 21.9822607,69.3727151 23.2633018,70.8467125 C25.0070576,72.8532643 27.4972511,74 30.1053129,74 C30.1279377,74 30.1509275,74 30.1735523,73.9998115 L62.8653705,73.7487097 C65.4736147,73.7287272 67.6662184,71.6948407 67.9656328,69.0175532 C68.2650472,66.3406427 66.5789482,63.8437639 64.0436874,63.209977 Z M65.2470012,68.6933077 C65.1059608,69.9540949 64.0734282,70.9117502 62.8453001,70.9211759 L30.1534819,71.1722776 C28.3042651,71.1881129 26.53533,70.3791958 25.300086,68.957794 C24.0646595,67.5362037 23.477873,65.6323925 23.6900722,63.7344253 C23.9022714,61.8366466 24.8935684,60.1211617 26.4101634,59.0279642 C27.5036372,58.2397837 28.7967205,57.8278788 30.106955,57.8278788 C30.6136422,57.8278788 31.1230663,57.8895232 31.6244623,58.0148855 L63.4001563,65.9587117 C64.5939823,66.2567536 65.3878592,67.4327091 65.2470012,68.6933077 Z" id="Shape"></path>
                    <path d="M41.9999048,16 C39.7943284,16 38,17.7943284 38,20.0000952 C38,22.205862 39.7943284,24 41.9999048,24 C44.2054811,24 46,22.2056716 46,20.0000952 C46,17.7945189 44.2054811,16 41.9999048,16 Z M41.9999048,21.1427891 C41.3697945,21.1427891 40.8572109,20.6302055 40.8572109,20.0000952 C40.8572109,19.369985 41.3697945,18.8572109 41.9999048,18.8572109 C42.630015,18.8572109 43.1427891,19.3697945 43.1427891,20.0000952 C43.1427891,20.630396 42.630015,21.1427891 41.9999048,21.1427891 Z" id="Shape"></path>
                    <path d="M48.5000938,37 C50.9813329,37 53,34.9813329 53,32.5000938 C53,31.7234526 52.3703619,31.0938145 51.5937207,31.0938145 C50.8170795,31.0938145 50.1874414,31.7234526 50.1874414,32.5000938 C50.1874414,33.4304881 49.4304881,34.1874414 48.5000938,34.1874414 C47.5696994,34.1874414 46.8125586,33.4304881 46.8125586,32.5000938 C46.8125586,31.5696994 47.5695119,30.8125586 48.5000938,30.8125586 C49.2767349,30.8125586 49.906373,30.1829205 49.906373,29.4062793 C49.906373,28.6296381 49.2767349,28 48.5000938,28 C46.0188546,28 44,30.0186671 44,32.5000938 C44,34.9811454 46.0186671,37 48.5000938,37 Z" id="Shape"></path>
                </g>
            </g>
        </g>
    </g>
</svg>