<?xml version="1.0" encoding="UTF-8"?>
<svg width="75px" height="75px" viewBox="0 0 75 75" version="1.1" xmlns="http://www.w3.org/2000/svg" xmlns:xlink="http://www.w3.org/1999/xlink">
    <!-- Generator: sketchtool 47.1 (45422) - http://www.bohemiancoding.com/sketch -->
    <title>C2BCD078-55B1-4677-97B4-1E20446B61F5</title>
    <desc>Created with sketchtool.</desc>
    <defs></defs>
    <g id="Project" stroke="none" stroke-width="1" fill="none" fill-rule="evenodd" opacity="0.5">
        <g id="1.0-Home" transform="translate(-655.000000, -529.000000)" fill-rule="nonzero" fill="#FFFFFF">
            <g id="Blocco-eventi" transform="translate(261.000000, 464.000000)">
                <g id="003-cheese" transform="translate(394.000000, 65.000000)">
                    <path d="M38.4351506,43.3083661 C38.3015154,42.9481132 38.1430821,42.5964039 37.9681165,42.2546621 C37.8551466,42.0339538 37.7242669,41.8246369 37.5947648,41.6110483 C37.5024601,41.4586884 37.4101555,41.3077524 37.3109624,41.1596643 C37.1621728,40.938956 37.0064948,40.7267913 36.841173,40.5174744 C36.746113,40.3978648 36.6441645,40.2839508 36.5449715,40.168613 C36.2336154,39.8097841 35.9015942,39.4765858 35.5447747,39.1647463 C35.4166503,39.0522563 35.2940366,38.9326467 35.1604015,38.8272763 C34.9923243,38.6948513 34.8187365,38.5795135 34.6437709,38.4584799 C34.4384964,38.3160875 34.2290888,38.1822386 34.0155481,38.0583572 C33.8695139,37.9743456 33.7248573,37.891758 33.57469,37.81629 C33.1930722,37.6240603 32.8059437,37.4517654 32.4077937,37.3250361 C32.0826609,37.2210897 31.7602834,37.1498935 31.4392836,37.0943604 C31.3731549,37.082969 31.3070262,37.0730015 31.2408975,37.064458 C30.585121,36.9719029 29.9444991,36.9790225 29.3369415,37.0858169 C29.3231647,37.0886647 29.3080102,37.0915126 29.2942334,37.0943604 C28.4938004,37.2424485 27.7512301,37.5514401 27.1161189,38.0355744 C27.0527455,38.0839878 27.0086597,38.1509122 26.946664,38.2007496 C26.7758315,38.343142 26.6201535,38.5040455 26.4686085,38.6706446 C26.3625271,38.7874064 26.2468018,38.8927768 26.1531195,39.0195061 C25.9533556,39.284356 25.7756347,39.5705648 25.6227121,39.8824042 C25.6199567,39.8880999 25.6213344,39.8937956 25.618579,39.8994913 C25.220429,40.7182478 25,41.6594617 25,42.6960786 C25,46.5420982 27.8958866,50.4835206 31.5922063,51.6668017 C32.2906908,51.8903578 32.98642,52 33.6559732,52 C34.8573116,52 35.9773667,51.6454428 36.8838811,50.9548396 C38.2477859,49.9153748 39,48.2593509 39,46.2943353 C39,45.2876208 38.7933478,44.2780585 38.4337729,43.30979 C38.4351506,43.30979 38.4351506,43.30979 38.4351506,43.3083661 Z M28.4772683,40.6086056 C28.608148,40.4662132 28.7583153,40.3480274 28.919504,40.2455049 C29.0118087,40.1857001 29.1123795,40.1401345 29.2143279,40.0945689 C29.3548514,40.0304923 29.499508,39.9721114 29.655186,39.9336655 C29.7695336,39.9066109 29.8893919,39.8952195 30.0106278,39.8824042 C30.1897264,39.8624693 30.368825,39.8439582 30.5603228,39.8553496 C30.611297,39.8581975 30.6636489,39.8624693 30.7160008,39.8695889 C30.9984255,39.8980674 31.290494,39.9507526 31.5935839,40.0475794 C31.878764,40.1387106 32.155678,40.2640159 32.428459,40.4035605 C32.4849439,40.432039 32.5400512,40.4619414 32.5951584,40.4918438 C33.1489864,40.7994114 33.66975,41.1966863 34.1326511,41.6623096 C34.1560716,41.6865163 34.1808699,41.7092991 34.2042905,41.7349297 C34.652037,42.1962812 35.0405432,42.7202853 35.3587876,43.2756158 C35.4056288,43.3596273 35.45247,43.4422149 35.4965558,43.5276504 C35.5254871,43.5831835 35.5461523,43.6415644 35.5750836,43.6970974 C34.8889982,44.4887993 33.7331234,44.7223229 32.4077937,44.3022652 C30.766975,43.7754132 29.2597914,42.387087 28.4180279,40.6684104 C28.4373155,40.6456276 28.4579807,40.6285405 28.4772683,40.6086056 Z M35.2485731,48.6651693 C34.5390671,49.2062605 33.5306042,49.3045113 32.4077937,48.9485302 C30.6498721,48.3846562 29.101358,46.8197634 28.3119465,45.0512494 C29.2914781,45.9454739 30.4115332,46.6417729 31.5922063,47.0205367 C32.2893131,47.2426689 32.9781539,47.3508872 33.6380634,47.3508872 C34.5707538,47.3508872 35.4428262,47.1259071 36.2074395,46.7172408 C36.1234009,47.5573562 35.7996457,48.2465355 35.2485731,48.6651693 Z" id="Shape"></path>
                    <path d="M58.9214313,47.245092 C57.3726177,46.781863 55.8394918,46.9817684 54.7071179,47.7896618 C53.6218073,48.5630887 53,49.8355896 53,51.2818015 C53,54.0597966 55.2305199,56.9025885 58.0785687,57.7545989 C58.6276416,57.9186592 59.1738623,58 59.702969,58 C60.6642033,58 61.5626864,57.7325404 62.2928821,57.2114078 C63.3781927,56.4379809 64,55.1668586 64,53.7206468 C63.9985738,50.9412731 61.7680539,48.0957237 58.9214313,47.245092 Z M60.5985998,54.9917691 C60.1964216,55.2785299 59.5988591,55.3254042 58.9200052,55.1213629 C57.2556722,54.6236675 55.8509011,52.8645004 55.8509011,51.2818015 C55.8509011,50.8792335 55.9450279,50.3319064 56.3985479,50.0079219 C56.6367172,49.8397256 56.9404901,49.7528702 57.2899002,49.7528702 C57.5337741,49.7528702 57.7976144,49.7942299 58.0771425,49.878328 C59.7414754,50.3760234 61.1462466,52.1351905 61.1462466,53.7192681 C61.1462466,54.1218362 61.0521198,54.6691632 60.5985998,54.9917691 Z" id="Shape"></path>
                    <path d="M18.9214313,45.245092 C17.3740438,44.781863 15.8394918,44.9817684 14.7071179,45.7896618 C13.6218073,46.5630887 13,47.8355896 13,49.2818015 C13,52.0597966 15.2305199,54.9025885 18.0785687,55.7545989 C18.6276416,55.9186592 19.1738623,56 19.702969,56 C20.6642033,56 21.5626864,55.7325404 22.2928821,55.2114078 C23.3781927,54.4379809 24,53.1668586 24,51.7206468 C23.9985738,48.9412731 21.7680539,46.0957237 18.9214313,45.245092 Z M20.5985998,52.9917691 C20.1964216,53.2785299 19.5988591,53.3240256 18.9200052,53.1213629 C17.2556722,52.6236675 15.8509011,50.8645004 15.8509011,49.2818015 C15.8509011,48.8792335 15.9450279,48.3319064 16.3985479,48.0079219 C16.6367172,47.8397256 16.9404901,47.7528702 17.2899002,47.7528702 C17.5337741,47.7528702 17.7976144,47.7942299 18.0771425,47.878328 C19.7414754,48.3760234 21.1462466,50.1351905 21.1462466,51.7192681 C21.1462466,52.1218362 21.0521198,52.6691632 20.5985998,52.9917691 Z" id="Shape"></path>
                    <path d="M48.4130207,57.1775643 C47.2789639,56.8391719 46.139307,56.9873035 45.2880644,57.597497 C44.4690235,58.1845874 44,59.1386092 44,60.2176596 C44,62.1950126 45.5750788,64.2158538 47.5855793,64.8206113 C47.9831992,64.9402038 48.380819,65 48.7672384,65 C49.4840742,65 50.1575079,64.7975082 50.7105355,64.4020376 C51.5295765,63.8149472 52,62.8595663 52,61.780516 C51.9971999,59.8018039 50.4221211,57.7809627 48.4130207,57.1775643 Z M49.0472524,62.2113207 C48.9240462,62.2996561 48.6818341,62.3037331 48.4130207,62.2235517 C47.5673784,61.9694177 46.80014,61.0126778 46.80014,60.2163006 C46.80014,60.1184522 46.8155408,59.8806263 46.9499475,59.7854959 C47.0129506,59.7392897 47.1095555,59.7161866 47.2271614,59.7161866 C47.3335667,59.7161866 47.4553728,59.7352127 47.5841792,59.7732648 C48.4298215,60.0273989 49.1970599,60.9827797 49.1970599,61.7791569 C49.1970599,61.8770053 49.1816591,62.1134723 49.0472524,62.2113207 Z" id="Shape"></path>
                    <path d="M46.5848071,47.8206005 C46.9824965,47.9402002 47.380186,48 47.7680732,48 C48.4836341,48 49.1585859,47.7974961 49.7117103,47.4020018 C50.5308945,46.8148763 51,45.8607973 51,44.7816823 C51,42.804211 49.4246457,40.7832488 47.4137935,40.1784552 C46.2753375,39.8373244 45.1382818,39.9895421 44.289691,40.598413 C43.4705067,41.1855385 43.0000009,42.1409766 43.0000009,43.2200916 C42.9986006,45.1948447 44.5739549,47.217166 46.5848071,47.8206005 Z M45.9504644,42.7865429 C46.0148789,42.7403339 46.1115007,42.7172294 46.2277268,42.7172294 C46.3341507,42.7172294 46.4559781,42.7362566 46.5848071,42.7743111 C47.4305973,43.0284603 48.1979699,43.9852575 48.1979699,44.7816823 C48.1979699,44.8795366 48.1825664,45.1173768 48.0481362,45.2125129 C47.9277091,45.3008535 47.682654,45.3035717 47.4137935,45.2247447 C46.5680033,44.9705954 45.8006307,44.0151574 45.8006307,43.2187325 C45.7992304,43.1208782 45.8146339,42.883038 45.9504644,42.7865429 Z" id="Shape"></path>
                    <path d="M16,30.4081825 C16,28.1738797 14.2165762,25.8879167 11.9388259,25.2019843 C10.6615688,24.8159679 9.38579181,24.9896035 8.43857918,25.6683609 C7.52540701,26.3212882 7,27.3874969 7,28.5943361 C7,30.8300739 8.7849038,33.1160369 11.0626542,33.7990993 C11.5111001,33.9339898 11.9580661,34 12.3917119,34 C13.1924026,34 13.9472126,33.7747042 14.5629008,33.3341577 C15.477553,32.6812304 16,31.6150217 16,30.4081825 Z M12.8061174,31.0223646 C12.624075,31.1529501 12.2955106,31.1673001 11.9388259,31.0582397 C10.8850518,30.7411036 9.96003947,29.5916646 9.96003947,28.5943361 C9.96003947,28.4264405 9.99111988,28.1236545 10.1938826,27.977284 C10.2945239,27.9055337 10.4380858,27.8696586 10.6068081,27.8696586 C10.7444499,27.8696586 10.898372,27.8940537 11.0626542,27.9428439 C12.1164282,28.25998 13.0399605,29.410854 13.0399605,30.4081825 C13.0399605,30.576078 13.0103601,30.8788641 12.8061174,31.0223646 Z" id="Shape"></path>
                    <path d="M69.3779363,49.4861159 C69.4005773,49.3895784 69.4430294,49.3070318 69.476991,49.2174898 C69.5095376,49.1307459 69.5321786,49.0384057 69.5732156,48.9600564 C69.5760457,48.95446 69.581706,48.9502628 69.5845361,48.9446664 C69.6623649,48.8005597 69.7585895,48.671843 69.8675497,48.5557182 C70.0104715,48.4032169 70.1816947,48.2828948 70.3741439,48.1891554 C70.4123507,48.1695681 70.4548027,48.1555772 70.4944246,48.1387881 C70.6783834,48.063237 70.877908,48.0114705 71.0944133,47.9876859 C71.1241297,47.9848877 71.151016,47.9764931 71.1821475,47.9736949 C71.3632762,47.9583049 71.5543103,47.9680985 71.7495896,47.9904841 C71.7722307,47.9932822 71.7934567,47.9904841 71.8160978,47.9932822 L71.8175129,47.9932822 C71.8330786,47.9946813 71.8528896,48.0030759 71.8698704,48.0058741 C72.0453388,48.033856 72.2193921,48.0758288 72.4118413,48.137389 C72.5250467,48.1737654 72.6495726,48.226931 72.7726835,48.2772984 C72.8476821,48.3080785 72.9240958,48.3332622 72.9990944,48.3654413 C73.0797532,48.4018178 73.1632422,48.4214051 73.2481463,48.4409924 C73.2778627,48.4479879 73.306164,48.4619788 73.3358805,48.4675752 C73.4391804,48.4857634 73.5424803,48.4885616 73.6457803,48.4843643 C73.6585159,48.4843643 73.6712515,48.4871625 73.6839871,48.4857634 C73.7943624,48.478768 73.9033226,48.4563825 74.0094527,48.4228042 C74.0151129,48.4214051 74.0207732,48.4214051 74.0278485,48.420006 C74.0971868,48.3976205 74.1608649,48.359845 74.225958,48.3262667 C74.266995,48.3052803 74.3108621,48.2926884 74.3490689,48.2675047 C74.6377427,48.0842234 74.8386823,47.8044045 74.9349069,47.4896083 C74.9731137,47.3608916 74.9985849,47.2293767 74.9985849,47.0922655 L74.9985849,43.9666888 C74.9985849,40.9558378 73.5679515,38.0597125 71.1694119,36.2059126 L46.5826116,13.2103982 C46.0632818,12.7249125 45.2609385,12.6969306 44.7118922,13.1460399 C44.2689761,13.5070062 43.6137997,13.5811582 42.8623988,13.3503077 C41.1048848,12.8116563 39.6204789,10.9102872 39.6204789,9.1977957 C39.6204789,8.84382483 39.6898172,8.52902861 39.8256637,8.26320069 C40.1072621,7.71055843 39.9883964,7.04179134 39.5355748,6.61646667 L35.3186732,2.67381886 C35.2818815,2.6402406 35.2436746,2.60806143 35.2040528,2.57868045 C31.9111904,0.0966871129 27.8711722,-0.679810238 24.8556631,0.626943862 L3.9268127,10.6094819 C1.54666893,11.6266234 0.0070753382,14.0106802 0.00141506764,16.7011386 L0,16.7067349 L0,16.7193268 L0,38.749466 C0,39.164997 0.186788929,39.5581426 0.50942435,39.8253696 C0.832059772,40.0897984 1.25374993,40.1989278 1.66977982,40.1261749 C2.14099734,40.0380319 2.64334635,40.0758075 3.15701591,40.2339051 C5.28103243,40.884484 7.0753382,43.184595 7.0753382,45.2594519 C7.0753382,46.0597339 6.79656988,46.7047164 6.28997566,47.0740773 C5.7239486,47.4868101 4.91028471,47.559563 3.99332088,47.278345 C3.43153903,47.1062564 2.86126677,46.7928593 2.30231505,46.3479473 C1.87637969,46.0121647 1.29478689,45.94221 0.802343352,46.1772578 C0.311314881,46.4095075 1.57104068e-16,46.9005896 1.57104068e-16,47.4378418 L1.57104068e-16,50.4640828 C1.57104068e-16,53.4735347 2.06175355,56.0856438 4.95839701,56.7977828 L66.7742118,74.8013286 C67.3119375,74.9356417 67.8553235,75 68.3944643,75 C69.8505689,75 71.2727118,74.5229088 72.4542933,73.6106993 C74.0731307,72.3613081 75,70.4823244 75,68.4522386 L75,56.7837919 C75,56.4396147 74.874059,56.1220203 74.6617988,55.8771788 C74.4495387,55.6309382 74.1523745,55.4560514 73.808513,55.4014867 C73.7787966,55.3972894 73.7490802,55.3846976 73.7193638,55.3791012 C72.4656139,55.1468515 71.2260146,54.2724176 70.3798042,53.1321557 L70.3798042,53.1321557 C69.9750948,52.5851098 69.6765155,51.9779029 69.4939718,51.3539068 C69.4430294,51.1776209 69.3864267,51.0027341 69.3567103,50.8250492 C69.3156733,50.5746113 69.2986925,50.3311689 69.3029377,50.1031165 C69.3057678,49.9827944 69.3284089,49.8750641 69.3425596,49.7631366 C69.3538801,49.6707963 69.3567103,49.5728597 69.3779363,49.4861159 Z M5.10273391,13.1530354 L26.0372446,3.16769916 C28.0622064,2.2932652 30.9574348,2.91866037 33.4295579,4.7584694 L36.924775,8.02675375 C36.8356257,8.40171103 36.7917586,8.79205834 36.7917586,9.1977957 C36.7917586,12.1261001 39.0912436,15.1229602 42.0275089,16.0225778 C43.2175808,16.3877414 44.3963321,16.3569614 45.4010302,15.9554213 L67.9232467,37.0215845 L43.578423,29.8526252 C42.9572084,27.4699676 40.9902643,25.295775 38.5676685,24.5556541 C36.9813777,24.0701684 35.4078225,24.2786334 34.2418068,25.1250855 C33.6687044,25.5420156 33.2300334,26.0862633 32.9342843,26.720053 L4.42208638,18.3296844 C3.54615951,18.1631921 3.03673516,17.567178 2.91079414,16.5556328 C2.90230373,16.4926735 2.87117224,16.4353106 2.85277636,16.3737505 C2.96739684,14.9452752 3.80087168,13.7098749 5.10273391,13.1530354 Z M40.9718685,31.3804362 C40.9718685,31.8239491 40.8685685,32.429757 40.3732948,32.7893242 C39.937454,33.1083177 39.2978434,33.1600842 38.5676685,32.9376282 C38.3483331,32.8704717 38.1318277,32.7823287 37.9238128,32.6745985 C36.6714779,32.0338133 35.6582895,30.7368528 35.3936718,29.4370942 C35.3498047,29.2230328 35.3271636,29.0089713 35.3271636,28.7977081 C35.3328239,28.766928 35.3512198,28.6144267 35.3540499,28.5850458 C35.3568801,28.5514675 35.3441445,28.5206874 35.3455595,28.4885083 C35.3894266,28.0981609 35.5323484,27.6616435 35.9243222,27.3762283 C36.1832796,27.1873505 36.5144054,27.0922121 36.8936435,27.0922121 C37.154016,27.0922121 37.4370295,27.1369831 37.7327786,27.2279243 C39.3770872,27.7315982 40.7638535,29.4245024 40.9393219,31.0432545 C40.940737,31.0558463 40.9379068,31.0670391 40.9379068,31.0796309 L40.9718685,31.3804362 Z M72.1670346,68.4536377 C72.1670346,69.6148859 71.6363842,70.6921886 70.7095149,71.4057267 C69.7826456,72.1234621 68.6010641,72.3683036 67.5142922,72.1038747 L5.69989245,54.100329 C4.01030169,53.6819998 2.83013528,52.187767 2.83013528,50.4640828 L2.83013528,49.8414858 C2.93909549,49.8806605 3.0480557,49.918436 3.15701591,49.9506152 C4.92585046,50.4934638 6.67770419,50.2640123 7.96824588,49.32522 C9.21633554,48.4158087 9.90405841,46.9705443 9.90405841,45.2594519 C9.90405841,41.9575893 7.30740929,38.5759783 3.99332088,37.561635 C3.60559235,37.4427119 3.21503368,37.3601654 2.82872021,37.3181925 L2.82872021,20.7683058 C3.11880908,20.8914261 3.42729382,20.9837663 3.74992925,21.0439273 L32.5408955,29.5238381 C32.5493859,29.5909946 32.5720269,29.656752 32.5833475,29.7239085 C32.6074036,29.8708134 32.6427803,30.0163193 32.6767419,30.1632242 C32.7234392,30.3646937 32.7772118,30.561966 32.8437199,30.7606374 C32.8932473,30.9103405 32.94985,31.0558463 33.0106979,31.2013522 C33.0885266,31.3902299 33.1734307,31.5763094 33.2682402,31.7595908 C33.3418237,31.9050966 33.4196525,32.0464051 33.5031415,32.1863146 C33.6092715,32.3639995 33.7224769,32.5332899 33.8427577,32.7025804 C33.9375672,32.8368934 34.0323767,32.9698074 34.1356767,33.0999231 C34.267278,33.2636172 34.4087847,33.4161185 34.5531216,33.5686197 C34.664912,33.6875428 34.7738722,33.8078649 34.8927379,33.9183933 C35.0512254,34.0680964 35.2210336,34.2024095 35.3922567,34.3381216 C35.5125375,34.4346591 35.628573,34.5353939 35.7545141,34.624936 C35.9512085,34.7634463 36.1592234,34.8809702 36.3686534,34.9984941 C36.4818588,35.0628525 36.589404,35.1370045 36.7068546,35.1957664 C37.0379804,35.3608596 37.3790117,35.5021681 37.7313636,35.6098984 C38.0865455,35.7190277 38.4403124,35.7805879 38.7898342,35.8197625 C38.8846437,35.8309553 38.9766231,35.8351526 39.0700175,35.842148 C39.1789778,35.8491435 39.2907681,35.8673317 39.3997283,35.8673317 C39.5935926,35.8673317 39.7817966,35.8477444 39.9700006,35.826758 C40.0053773,35.8225607 40.042169,35.8239598 40.0775457,35.8183634 C40.4015962,35.7735924 40.711496,35.6896467 41.0100753,35.5819165 C41.0794136,35.5567328 41.1473368,35.5287509 41.2152601,35.4993699 C41.5110092,35.3748505 41.7968529,35.2307438 42.0558103,35.0418661 C42.3062772,34.8585847 42.5227826,34.6445233 42.7208921,34.4164709 C42.7732496,34.3577089 42.8213619,34.2961488 42.8708892,34.2345886 C43.0421124,34.0149308 43.1963548,33.7812821 43.3208807,33.528046 C43.3322013,33.5056605 43.346352,33.4874723 43.3576725,33.4650868 C43.4609724,33.2468281 43.5487066,33.0201748 43.6166299,32.7809296 L69.1741665,40.3024607 C70.9104545,40.6704225 72.1698647,42.2094263 72.1698647,43.9652897 L72.1698647,45.2174791 C71.7326088,45.1601162 71.3095036,45.1531208 70.900549,45.1880981 C70.5496123,45.2188782 70.2142412,45.2874338 69.8930209,45.3811731 C69.7812305,45.4133523 69.6751005,45.4595224 69.5675553,45.5000962 C69.3439746,45.5826427 69.1274693,45.6777811 68.9208694,45.7925069 C68.8203996,45.8484706 68.7227599,45.9058335 68.6265353,45.9687928 C68.41003,46.1115004 68.2105055,46.2723962 68.0194713,46.4500812 C67.971359,46.4948522 67.9133413,46.5242332 67.866644,46.5718024 C67.8510783,46.5871924 67.8425879,46.6081789 67.8270221,46.624968 C67.8015509,46.6515508 67.7718345,46.669739 67.7463633,46.6977209 C67.7449482,46.69912 67.7449482,46.69912 67.7435331,46.7005191 C67.6091017,46.847424 67.5128771,47.0293063 67.3968416,47.1943994 C67.3034471,47.3287124 67.1944869,47.4518327 67.1152431,47.5959395 C67.1010924,47.6211232 67.0812815,47.6393114 67.0685459,47.663096 C66.9539254,47.8799556 66.8860022,48.1192007 66.8039282,48.3528495 C66.7628913,48.4717725 66.7020434,48.5809019 66.6694968,48.7040222 C66.5860078,49.0118229 66.547801,49.3406101 66.5194996,49.6721954 C66.5110092,49.7659348 66.485538,49.8526786 66.4812928,49.947817 C66.4812928,49.9632071 66.4756325,49.977198 66.4756325,49.992588 C66.4657271,50.3521553 66.5011038,50.7285116 66.5548763,51.1076662 C66.5633667,51.1650291 66.5562914,51.2181947 66.5647818,51.2755575 C66.63129,51.6742994 66.73742,52.0660458 66.8690213,52.4521959 C66.8789268,52.4801777 66.8803419,52.5081596 66.8902474,52.5347424 C66.9369446,52.6690555 66.9992076,52.8075658 67.1053376,53.0342191 C67.1775061,53.2021104 67.2468444,53.3700017 67.3303334,53.5336958 C67.3600498,53.596655 67.384106,53.6610134 67.4180676,53.7239726 C67.4987264,53.8736757 67.594951,54.0135851 67.6869304,54.1548936 C67.7675893,54.2850094 67.8482481,54.4137261 67.9345673,54.5396446 L67.9331522,54.5410437 C67.9897549,54.634783 68.0491878,54.7285223 68.1072055,54.8040734 C68.3378615,55.1160715 68.5939888,55.4084822 68.8104941,55.6323373 C68.8402106,55.6673146 68.9024735,55.7414666 68.9364352,55.7750449 C69.0340748,55.8743806 69.1402049,55.9583262 69.2406747,56.0520656 C69.2873719,56.0954375 69.3354842,56.1388094 69.3835965,56.1821813 C69.6199128,56.3934446 69.8633045,56.5879187 70.1151865,56.7698009 C70.1604687,56.8019801 70.2043358,56.8355584 70.2496179,56.8677375 C70.5142356,57.0510189 70.7859286,57.216112 71.0632818,57.364416 C71.1057339,57.3868015 71.1453557,57.4133843 71.1878078,57.4343707 C71.5104432,57.5994639 71.8387389,57.7477679 72.1726949,57.8638927 L72.1726949,68.4536377 L72.1670346,68.4536377 Z" id="Shape"></path>
                </g>
            </g>
        </g>
    </g>
</svg>