<?xml version="1.0" encoding="UTF-8"?>
<svg width="82px" height="81px" viewBox="0 0 82 81" version="1.1" xmlns="http://www.w3.org/2000/svg" xmlns:xlink="http://www.w3.org/1999/xlink">
    <!-- Generator: sketchtool 47.1 (45422) - http://www.bohemiancoding.com/sketch -->
    <title>5222CD27-B5D3-4DEC-875E-7DC4AB8C29A4</title>
    <desc>Created with sketchtool.</desc>
    <defs></defs>
    <g id="Project" stroke="none" stroke-width="1" fill="none" fill-rule="evenodd" opacity="0.5">
        <g id="1.0-Home" transform="translate(-524.000000, -485.000000)" fill-rule="nonzero" fill="#FFFFFF">
            <g id="Blocco-eventi" transform="translate(261.000000, 464.000000)">
                <g id="004-carrot" transform="translate(263.000000, 21.000000)">
                    <path d="M80.2515347,37.0221995 C83.0777531,33.4075288 81.8536142,30.0188617 80.8879202,28.8361558 C78.7758986,25.6665596 75.860753,23.7129459 72.2230738,23.029389 C71.9354498,22.9753146 71.6422678,22.9572897 71.3518649,22.9212401 C71.7270266,22.6064989 72.0869039,22.2903712 72.425939,21.9714705 C74.8672692,19.6656794 76.0386075,17.2018244 75.9066061,14.6478453 C75.7037409,10.7392313 72.4551182,8.20605009 72.3161694,8.09928766 L72.2508635,8.05214581 C66.527563,4.17403534 60.102571,8.86742252 59.8316209,9.06985517 L59.587071,9.30279137 C59.4870279,9.42480558 59.3911532,9.56761765 59.2924996,9.69379143 C58.6644511,6.47843991 56.9234228,3.92168778 54.1097098,2.09702086 C53.4497031,1.57014135 49.2381653,-1.53567468 44.3235467,0.955910772 C43.714951,1.26510585 43.1647138,1.66442506 42.6450453,2.10256696 C41.2055359,1.69631513 39.6048459,1.57430093 38.0180507,2.13445704 C35.8615655,2.8970458 34.4498458,4.72864534 34.2414227,7.03582297 C34.0191046,9.48858573 35.2585278,11.8637031 37.3969496,13.0880047 C39.354738,14.2083169 41.7001936,16.2825583 43.8789106,20.0857964 C42.5825184,19.9970588 41.3292003,20.1343248 40.1453566,20.559988 C33.0853687,23.0903961 5.16222037,63.9124657 0.208696094,77.1690314 C-0.208150269,78.2865705 0.00860983987,79.4554111 0.776996636,80.223546 C1.28693869,80.7324007 1.97473519,81 2.70838478,81 C3.07937805,81 3.46148721,80.9320603 3.83803843,80.7920212 C17.2174172,75.8143964 58.2934578,48.0894422 60.7875885,41.1582036 C61.1280131,40.2112071 61.2891937,39.2184551 61.3016991,38.1965862 C65.1116748,40.0586893 67.1264322,41.8708775 68.1768851,43.3100905 C69.7081007,45.4065163 72.1772207,46.7015307 74.6393932,46.7015307 C74.6657934,46.7015307 74.6921937,46.7015307 74.718594,46.7015307 C76.7708676,46.6779597 78.5924862,45.7378958 79.7179714,44.1225941 C81.3909148,41.7183597 80.7976034,39.1227849 79.9055522,37.4256783 C80.0236587,37.2897988 80.1459336,37.158079 80.2515347,37.0221995 Z M78.6397288,30.4611631 C78.7981304,30.6677554 80.0973016,32.5173797 78.2228824,35.1018624 C78.1645239,35.0325361 78.1033865,34.9701425 78.0436385,34.9022028 C77.9422059,34.7857347 77.8407732,34.6734261 77.7379511,34.5597311 C77.4753379,34.2671743 77.2113352,33.9857097 76.9431641,33.7153373 C76.8611843,33.6321458 76.7792045,33.5489543 76.6972247,33.4685359 C72.3481277,29.2174502 67.3904349,27.8794536 62.8912732,27.8794536 C61.2961411,27.8794536 59.757978,28.0472231 58.325416,28.3092763 C58.4796492,28.2399501 58.6394403,28.1706238 58.7964524,28.1026841 C59.014602,28.0070139 59.2327516,27.9113436 59.4564592,27.8170599 C59.6968406,27.7158436 59.9400009,27.6174003 60.1873298,27.5203436 C60.392974,27.4385386 60.6041761,27.3595067 60.8139888,27.2804747 C61.2002664,27.1362761 61.592102,26.9962371 61.990885,26.8631307 C62.2396034,26.7799392 62.4883217,26.6967477 62.739819,26.6204888 C62.9829794,26.5456165 63.2303082,26.4749037 63.4762476,26.4055775 C63.7499767,26.3293186 64.0250953,26.2586058 64.3016034,26.1906661 C64.5725535,26.1241129 64.8448931,26.0589462 65.1186222,26.0007122 C65.5021209,25.9189072 65.887009,25.8468079 66.2732867,25.7858008 C66.4817099,25.7525242 66.690133,25.7247937 66.8985562,25.6984497 C68.529815,25.4876979 70.1624632,25.4669 71.7145212,25.7566837 C74.6268878,26.3043611 76.8709107,27.8142869 78.6397288,30.4611631 Z M61.6226708,11.2023306 C62.4313527,10.6518802 66.9152301,7.83168833 70.648784,10.3191142 C70.8975023,10.5229334 73.0053554,12.3295755 73.1317988,14.7920439 C73.2193366,16.4974697 72.3397907,18.2361721 70.5153932,19.9596227 C69.446877,20.9690129 68.1463163,21.9673109 66.6484484,22.9281727 C66.4636465,22.9517436 66.2802341,22.9891798 66.0954322,23.0169103 C65.7063756,23.0751444 65.3187085,23.1333784 64.9338204,23.2082508 C64.6670387,23.2609387 64.405815,23.3233323 64.1418123,23.3829529 C63.8375144,23.4522792 63.5346061,23.5202189 63.2344767,23.5992508 C62.9551896,23.6713501 62.680071,23.7489955 62.4049524,23.829414 C62.1284443,23.9098324 61.8547152,23.9916374 61.5823756,24.077602 C61.3003096,24.1677261 61.0210225,24.2578502 60.7445144,24.3535204 C60.4957961,24.439485 60.2526357,24.5282226 60.0094753,24.6183467 C59.7232408,24.7237226 59.4370063,24.827712 59.1577193,24.938634 C58.9687489,25.0135063 58.786726,25.0911517 58.6005346,25.1674106 C57.3930697,25.6651731 56.268974,26.187893 55.2615953,26.7009073 C55.2477004,26.7078399 55.2310265,26.7161591 55.2171316,26.7230917 C56.0688877,25.1479993 56.9637179,23.2803501 57.7251573,21.2657292 C57.7723998,21.1395554 57.8238109,21.0175412 57.869664,20.8899809 C58.0002759,20.530871 58.1197718,20.1648284 58.2406573,19.7973992 C58.3059632,19.5977396 58.3754376,19.3994665 58.436575,19.1970339 C58.5435656,18.8490161 58.6366613,18.4982253 58.7311465,18.1446614 C58.7908945,17.9200444 58.8520319,17.6968138 58.906222,17.4708102 C58.9895912,17.1227925 59.0618446,16.7733882 59.131319,16.4225973 C59.1771721,16.1896611 59.2216357,15.9581115 59.2605414,15.7237887 C59.3188999,15.3757709 59.3661424,15.0277532 59.4064376,14.6797354 C59.4203325,14.5577212 59.4453432,14.4370935 59.4578486,14.3150793 C60.1734349,13.1406926 60.8848527,12.1174372 61.6226708,11.2023306 Z M45.6352232,3.40312743 C49.1770278,1.64362718 52.2630804,4.16848924 52.3881343,4.27247861 C52.4367664,4.31407436 52.486788,4.35151054 52.5395885,4.38617366 C54.7752745,5.81845401 56.0966775,7.74433725 56.5774403,10.2719724 C56.7830845,11.3506888 56.8136532,12.4820932 56.7288944,13.632909 L56.719168,13.7576963 C56.5385346,15.9414732 55.9146546,18.1918033 55.1226465,20.2840695 C55.1796155,18.954392 55.115699,17.5845053 54.890602,16.2062994 C54.8836545,16.1633172 54.8739281,16.1217214 54.8669807,16.0801257 C54.8155696,15.7820228 54.7586006,15.4839199 54.6919052,15.1844305 C54.6516101,15.0014092 54.6043675,14.8183879 54.5571249,14.6367531 C54.5182192,14.4870084 54.4793136,14.3358772 54.43485,14.1861325 C54.3639861,13.9379445 54.2875642,13.6911431 54.204195,13.4443416 C54.1819632,13.3777884 54.1569524,13.3098487 54.1333311,13.2432955 C53.452482,11.303547 52.3742394,9.4040077 50.7721599,7.62925568 C50.7276963,7.5807273 50.6832327,7.5308124 50.6387691,7.48228403 C50.4095036,7.23409605 50.1746801,6.98868112 49.9245723,6.74742577 C49.8036869,6.62957114 49.6744645,6.51310304 49.5480211,6.39663494 C49.3548823,6.21915974 49.1659119,6.04029801 48.9602677,5.86698238 C48.5864955,5.5466951 48.1960494,5.2305674 47.7805925,4.92137232 C47.7778135,4.91859927 47.7680871,4.91028012 47.7639187,4.90750707 C47.6527596,4.81045032 47.4082098,4.60940419 47.0594483,4.34873749 C47.0566693,4.34735096 47.0552799,4.34457791 47.0525009,4.34319139 C46.696792,4.07836511 46.2340925,3.76085088 45.6838553,3.4350175 C45.665792,3.42253878 45.6518971,3.4128331 45.6352232,3.40312743 Z M38.7808795,10.6823838 C37.580362,9.99605388 36.8856181,8.66221682 37.0092825,7.28539747 C37.062083,6.70998959 37.355265,5.31098585 38.9462286,4.74944322 C39.3950332,4.58999284 39.8577327,4.52205312 40.3204321,4.52205312 C41.0568607,4.52205312 41.7932893,4.69952832 42.4866437,4.95603545 C42.4866437,4.95603545 42.4894227,4.95742197 42.4908122,4.95742197 C42.5088755,4.9643546 42.5255494,4.97267375 42.5436127,4.97960637 C42.7826046,5.0697305 43.0174281,5.16678725 43.2425251,5.27354967 C43.3536841,5.32623763 43.4578957,5.38169863 43.5662758,5.4357731 C43.7469092,5.52867028 43.9261532,5.62295398 44.0928917,5.71862421 C44.1581976,5.75606038 44.2235036,5.79349656 44.2860305,5.83093273 C45.030796,6.27878031 45.6046545,6.72246832 45.8867205,6.95124495 C45.9409106,6.99700027 45.9742583,7.0261173 45.9812057,7.03027687 C46.0131639,7.0593939 46.0465117,7.08573787 46.0812489,7.11208185 C46.6870656,7.55992943 47.2442502,8.03273446 47.7625292,8.52356431 C47.9098149,8.66360334 48.0307003,8.80918847 48.1696491,8.95061402 C48.5239685,9.31111052 48.8685615,9.67715313 49.1784173,10.0584475 C49.3145871,10.226217 49.4313041,10.3967596 49.556358,10.5659157 C49.8398136,10.9485966 50.1093742,11.3395966 50.3497556,11.7430754 C50.4442408,11.9011393 50.5345575,12.0605896 50.6207057,12.22004 C50.8819295,12.7011642 51.1195319,13.1947671 51.3210076,13.7036218 C51.3529659,13.7826537 51.3890925,13.8616856 51.4196613,13.9407176 C52.3964712,16.5418385 52.6187893,19.4937502 52.0685521,22.7839741 C51.6864429,25.0634212 50.9861411,27.1335031 50.3219659,28.733553 C50.0871424,27.8905458 49.8384241,27.0946804 49.5855373,26.322386 C49.5438526,26.1934391 49.499389,26.0700384 49.4563149,25.9424781 C49.220102,25.2395099 48.9755521,24.5642722 48.7268338,23.9181516 C48.6837596,23.8086161 48.6434645,23.6976941 48.6003904,23.5881586 C45.6102125,16.0385299 41.8016262,12.4099939 38.7808795,10.6823838 Z M58.1725724,40.2195262 C57.4236384,42.2979272 52.2019429,46.829091 45.1600184,52.0812477 C45.0419119,52.0327193 44.9251949,51.9786449 44.7904146,51.9633931 C42.5213809,51.7152051 39.5826141,50.544978 38.1319887,48.4901479 C37.6901316,47.8634386 36.8203122,47.7150804 36.1950426,48.1559954 C35.5669941,48.5969104 35.4169294,49.462102 35.860176,50.0888113 C37.4011181,52.2684286 39.9119227,53.5911735 42.1990197,54.2539324 C37.7804483,57.4498726 32.8588822,60.8108092 27.9609375,63.9928841 C27.7539038,63.8112494 27.5079644,63.6712103 27.213393,63.6379337 C25.7891679,63.4826429 23.949486,62.7574904 23.0532663,61.4902065 C22.6114091,60.8648837 21.7457582,60.7137525 21.1163202,61.1574405 C20.4896611,61.5983554 20.3395964,62.463547 20.7828431,63.0902564 C21.8027272,64.5336289 23.4061962,65.4418028 24.9262959,65.9451114 C15.9307514,71.6631405 7.42986459,76.4965667 2.86817589,78.1936734 C2.83760716,78.2047656 2.8098174,78.2130847 2.78897508,78.2214039 C2.79453303,78.1978329 2.80286996,78.1701024 2.81398586,78.1395989 C3.93530258,75.1391588 6.01814491,71.0960518 8.64844546,66.5676611 C8.69846702,66.617576 8.73042524,66.6785831 8.78878373,66.7215654 C9.78643603,67.4522641 10.8466153,68.0872925 11.9387527,68.6072394 C12.1318916,68.69875 12.3361463,68.7431189 12.537622,68.7431189 C13.055901,68.7431189 13.5533377,68.4519486 13.7923296,67.9541861 C14.1230277,67.2623101 13.8298457,66.4345547 13.1378808,66.1059483 C12.201366,65.6594872 11.2912514,65.1145829 10.4325479,64.486487 C10.2977676,64.3880438 10.1477029,64.3284232 9.9962487,64.2854409 C13.2490398,58.8599685 17.1548902,52.8992975 21.1093727,47.2284102 C21.6387676,48.6024565 22.5127555,49.9917545 23.8133161,50.9082476 C24.0564765,51.0801767 24.3357636,51.1619816 24.6136612,51.1619816 C25.0499604,51.1619816 25.4793121,50.9581625 25.7502622,50.5754816 C26.1921194,49.9501588 26.0434442,49.0849672 25.4167852,48.6426657 C24.1454037,47.7469705 23.4200911,45.9125979 23.2644684,44.4900233 C23.2561315,44.4109913 23.2158364,44.3458247 23.194994,44.2709523 C26.2713202,39.957473 29.3017933,35.9226852 32.0057367,32.5506563 C32.6685224,34.8356496 33.9954833,37.3494194 36.1839267,38.8898487 C36.4270871,39.0617778 36.7063741,39.1435828 36.9842717,39.1435828 C37.4205709,39.1435828 37.8513122,38.9397636 38.1208728,38.5570827 C38.56273,37.9303734 38.4140547,37.0665683 37.7873957,36.6242668 C35.7281747,35.1739617 34.5554469,32.2414613 34.3067286,29.980039 C34.2997811,29.9204184 34.2678229,29.87189 34.253928,29.8150425 C37.3816653,26.1019285 39.8605116,23.6131161 41.0902084,23.1722011 C41.7710575,22.9281727 42.4769173,22.8061585 43.2147354,22.8061585 C43.9122583,22.8061585 44.6403499,22.915694 45.4045683,23.1347649 C46.0159429,24.5129708 46.574517,26.0104178 47.0830696,27.6049216 C47.1164173,27.708911 47.149765,27.8115138 47.1817232,27.9168897 C47.3915359,28.5907409 47.5902327,29.2867764 47.781982,29.9952907 C47.8250561,30.1547411 47.8695197,30.3058723 47.9125939,30.4680958 C48.132133,31.3097164 48.3419456,32.1707485 48.5350844,33.0581245 C48.5475898,33.1163585 48.5767691,33.16766 48.5962219,33.2245075 C48.6156747,33.278582 48.6295696,33.3354295 48.6559699,33.3867309 C48.6629173,33.4019827 48.6684753,33.4172345 48.6768122,33.4324862 C48.7004335,33.4754685 48.7337812,33.5087451 48.761571,33.5475678 C48.7685184,33.5572735 48.7754658,33.5669792 48.7838028,33.5766848 C48.815761,33.6196671 48.8421613,33.666809 48.8782879,33.7056317 C48.8866249,33.7139508 48.8921828,33.7236565 48.9005198,33.7319756 L48.9005198,33.7319756 C48.9005198,33.7319756 48.9019092,33.7319756 48.9019092,33.7319756 C48.9060777,33.7361352 48.9102462,33.7389083 48.9144146,33.7416813 C48.9533203,33.780504 49.0005629,33.809621 49.0450265,33.8442842 C49.0547529,33.8526033 49.0644793,33.8595359 49.0742057,33.8678551 C49.1103324,33.8955856 49.1422906,33.9288622 49.1811963,33.9524331 C49.1964807,33.9621388 49.2131545,33.9676849 49.2298284,33.9760041 C49.2617866,33.9940289 49.2965238,34.0065076 49.3298715,34.0217594 C49.3618297,34.0356246 49.3923985,34.0439438 49.4243567,34.0564225 C49.4674308,34.0716743 49.504947,34.0966317 49.5494106,34.1077239 C50.3483661,34.3101566 51.1250898,34.5195219 51.8837502,34.7344332 C52.0560467,34.7829616 52.2158378,34.8328765 52.3839659,34.8814049 C52.9786667,35.053334 53.5650306,35.2280361 54.1333311,35.4068979 C54.2792273,35.4526532 54.4167866,35.4984085 54.5599039,35.5455504 C55.1518257,35.7368908 55.7326316,35.9310043 56.2925953,36.1292774 C56.3898594,36.1639405 56.4857341,36.1972171 56.5816087,36.2318803 C57.2249416,36.4634299 57.8502112,36.6977527 58.4490804,36.9376215 C58.4504699,36.9376215 58.4518594,36.939008 58.4532489,36.939008 C58.6352718,38.1106217 58.5435656,39.1893381 58.1725724,40.2195262 Z M77.4350428,42.537796 C76.6485926,43.6678139 75.5064336,43.9173884 74.6866358,43.9257076 C74.6699619,43.9257076 74.6532881,43.9257076 74.6366142,43.9257076 C73.0484296,43.9257076 71.4380131,43.0660621 70.420908,41.6739909 C68.4978568,39.0423665 65.0658217,36.7032988 60.222067,34.6734261 C60.21373,34.6692666 60.2081721,34.6609474 60.1984457,34.6567878 C60.1442556,34.6346034 60.0858972,34.6138056 60.0317071,34.5916212 C59.6106923,34.416919 59.1702246,34.2463764 58.726978,34.0772204 C58.3434794,33.9302487 57.9544228,33.7846636 57.5556397,33.640465 C57.1499093,33.4948799 56.7413998,33.3492947 56.317606,33.2064827 C55.7368001,33.0095961 55.1351519,32.8196422 54.5251667,32.6310748 C54.2959012,32.560362 54.087478,32.4854897 53.854044,32.4161634 C53.9665926,32.3717946 54.0944254,32.3288123 54.2111424,32.2844435 C54.2528271,32.2733513 54.2959012,32.283057 54.3361963,32.2691918 C58.6713985,30.6913263 66.0884848,29.1647622 72.5204242,33.6182806 C72.8525118,33.8498303 73.1790414,34.1160431 73.5055711,34.3808694 C73.6625832,34.5070431 73.8223743,34.6151921 73.9779969,34.749685 C74.9645333,35.6051709 75.9218905,36.6214938 76.834784,37.8180649 L77.011249,38.0523876 C77.0168069,38.0593202 77.0251439,38.0620933 77.0293123,38.0690259 C77.5017382,38.71376 78.7133716,40.7020369 77.4350428,42.537796 Z" id="Shape"></path>
                    <path d="M57.0389177,40.2999286 C53.9876978,39.2120899 51.1557005,37.2567695 48.6249477,34.4883595 C48.0895675,33.9026002 47.148551,33.8342616 46.5222009,34.3349464 C45.8958508,34.8356311 45.8227766,35.7156647 46.3581568,36.301424 C49.2169977,39.4282629 52.45314,41.6513589 55.9771051,42.9079521 C56.1515883,42.9693174 56.3305455,43 56.5080114,43 C57.1090092,43 57.6742156,42.6569124 57.902386,42.1004411 C58.1946828,41.3807939 57.8084335,40.5746776 57.0389177,40.2999286 Z" id="Shape"></path>
                </g>
            </g>
        </g>
    </g>
</svg>