<?xml version="1.0" encoding="UTF-8"?>
<svg width="49px" height="60px" viewBox="0 0 49 60" version="1.1" xmlns="http://www.w3.org/2000/svg" xmlns:xlink="http://www.w3.org/1999/xlink">
    <!-- Generator: sketchtool 47.1 (45422) - http://www.bohemiancoding.com/sketch -->
    <title>7E073205-9A35-4435-8D0E-68B3B74EA4A7</title>
    <desc>Created with sketchtool.</desc>
    <defs></defs>
    <g id="Project" stroke="none" stroke-width="1" fill="none" fill-rule="evenodd" opacity="0.5">
        <g id="1.0-Home" transform="translate(-521.000000, -660.000000)" fill-rule="nonzero" fill="#FFFFFF">
            <g id="Blocco-eventi" transform="translate(261.000000, 464.000000)">
                <g id="005-apple" transform="translate(260.000000, 196.000000)">
                    <path d="M42.739,18.011 C38.433,14.623 32.334,15.561 27.502,16.757 C26.725,16.95 25.928,17.043 25.129,17.078 C25.002,16.44 24.844,15.8 24.651,15.165 L28.385,14.609 C33.168,13.897 36.861,10.204 37.573,5.421 L38.124,1.72 C38.172,1.591 38.19,1.457 38.183,1.321 L38.379,0 L32.958,0.807 C28.175,1.52 24.482,5.212 23.77,9.995 L23.445,12.178 C22.337,10.051 20.743,8.19 18.544,7.017 C18.055,6.756 17.451,6.942 17.19,7.429 C16.93,7.917 17.115,8.522 17.602,8.782 C20.655,10.41 22.339,13.703 23.075,17.013 C22.608,16.954 22.145,16.872 21.688,16.758 C16.856,15.562 10.755,14.623 6.451,18.012 C2.595,21.047 0.743,27.054 0.791,36.376 C0.826,43.263 4.792,51.208 10.436,55.697 C14.163,58.662 18.171,59.773 22.02,58.904 C23.706,58.524 25.484,58.524 27.169,58.904 C28.021,59.096 28.879,59.191 29.74,59.191 C32.776,59.191 35.849,58.007 38.753,55.697 C44.397,51.207 48.362,43.262 48.398,36.376 C48.447,27.053 46.595,21.046 42.739,18.011 Z M28.09,12.63 L27.213,12.761 L35.724,4.25 L35.593,5.127 C35.013,9.033 31.997,12.049 28.09,12.63 Z M33.253,2.786 L34.554,2.592 L25.555,11.591 L25.749,10.289 C26.33,6.383 29.346,3.368 33.253,2.786 Z M37.509,54.132 C35.253,55.928 31.707,57.878 27.61,56.952 C26.624,56.73 25.61,56.619 24.595,56.619 C23.581,56.619 22.567,56.73 21.581,56.952 C17.492,57.876 13.938,55.928 11.682,54.132 C6.563,50.059 2.824,42.588 2.792,36.365 C2.747,27.7 4.349,22.211 7.688,19.583 C10.516,17.358 14.688,17.086 21.209,18.699 C21.933,18.878 22.672,18.977 23.415,19.039 C23.472,19.551 23.51,20.056 23.526,20.546 C23.543,21.087 23.987,21.514 24.524,21.514 C24.535,21.514 24.545,21.514 24.556,21.514 C25.109,21.496 25.541,21.035 25.524,20.483 C25.509,20.02 25.473,19.543 25.424,19.061 C26.285,19.011 27.143,18.907 27.982,18.7 C34.503,17.088 38.674,17.36 41.503,19.584 C44.843,22.212 46.444,27.702 46.399,36.367 C46.368,42.587 42.628,50.059 37.509,54.132 Z" id="Shape"></path>
                    <path d="M14.791,20.188 C9.828,20.188 5.791,24.674 5.791,30.188 C5.791,30.74 6.238,31.188 6.791,31.188 C7.344,31.188 7.791,30.74 7.791,30.188 C7.791,25.777 10.932,22.188 14.791,22.188 C15.344,22.188 15.791,21.74 15.791,21.188 C15.791,20.636 15.344,20.188 14.791,20.188 Z" id="Shape"></path>
                    <path d="M27.47,20.481 C26.658,21.293 25.58,21.74 24.435,21.74 C23.29,21.74 22.21,21.293 21.399,20.481 C21.008,20.09 20.376,20.09 19.985,20.481 C19.594,20.872 19.594,21.505 19.985,21.895 C21.174,23.084 22.756,23.74 24.435,23.74 C26.114,23.74 27.695,23.085 28.884,21.895 C29.275,21.504 29.275,20.871 28.884,20.481 C28.493,20.09 27.861,20.09 27.47,20.481 Z" id="Shape"></path>
                </g>
            </g>
        </g>
    </g>
</svg>