<?xml version="1.0" encoding="UTF-8"?>
<svg width="68px" height="56px" viewBox="0 0 68 56" version="1.1" xmlns="http://www.w3.org/2000/svg" xmlns:xlink="http://www.w3.org/1999/xlink">
    <!-- Generator: sketchtool 47.1 (45422) - http://www.bohemiancoding.com/sketch -->
    <title>BD48F42A-657B-4B60-B24C-532FB39525C3</title>
    <desc>Created with sketchtool.</desc>
    <defs></defs>
    <g id="Project" stroke="none" stroke-width="1" fill="none" fill-rule="evenodd" opacity="0.5">
        <g id="1.0-Home" transform="translate(-384.000000, -493.000000)" fill-rule="nonzero" fill="#FFFFFF">
            <g id="Blocco-eventi" transform="translate(261.000000, 464.000000)">
                <g id="006-vegetables" transform="translate(123.000000, 29.000000)">
                    <path d="M67.3134082,29.0783598 C66.9750866,28.4172656 66.2927717,28.0008169 65.5471452,28.0002919 L60.6478791,28.0002919 C62.0045949,25.9991597 62.8239531,23.6857894 63.0278694,21.2804145 C63.0277375,20.8434912 62.7723805,20.4465985 62.3739128,20.2632456 C60.0263698,19.0654799 57.3143892,18.7819851 54.7679421,19.4678851 L62.279473,12.8401435 C64.2731303,11.3979948 65.1477543,8.86937837 64.4687369,6.51177762 L64.9240531,6.66284362 C65.3057696,6.79081004 65.7270558,6.70602408 66.0287094,6.44051017 C66.330363,6.17499627 66.466483,5.76930992 66.3854969,5.37661708 C66.3045108,4.98405549 66.0186851,4.66446757 65.6363091,4.53873236 L63.9861175,3.99156109 L66.0759293,1.91273026 C66.5086908,1.47423201 66.5053933,0.770744836 66.0688068,0.336184012 C65.6322202,-0.0983768115 64.9251083,-0.101526754 64.4844329,0.329096642 L62.3954124,2.40700874 L61.8464477,0.766544913 C61.6497859,0.179343123 61.012053,-0.137882341 60.4219357,0.0578078398 C59.8318184,0.253498021 59.5130179,0.888080196 59.7096797,1.47528199 L60.0106738,2.37459058 C57.7455678,1.88634949 55.4046198,2.77778323 54.0457936,4.6460929 L45.9849023,13.6922029 C45.7397016,12.8350248 45.2632814,12.0611889 44.6073464,11.4544312 C44.3319408,11.2305228 43.9664479,11.149018 43.6213995,11.2345915 C40.0173841,12.2083175 36.6142513,13.8066508 33.567906,15.9560929 C32.7099013,11.7031454 29.2176047,8.47091064 24.8927598,7.92702056 C25.3728731,5.91092608 27.179893,4.48570833 29.2620547,4.48085217 C29.8836959,4.48085217 30.3875511,3.97948631 30.3875511,3.36091634 C30.3875511,2.74234638 29.8836959,2.24098052 29.2620547,2.24098052 C26.9969487,2.24216175 24.883395,3.37377861 23.6344409,5.25416306 C22.3857506,3.37390986 20.2725926,2.242293 18.0077504,2.24098052 C17.3861092,2.24098052 16.882254,2.74234638 16.882254,3.36091634 C16.882254,3.97948631 17.3861092,4.48085217 18.0077504,4.48085217 C20.0896483,4.48597082 21.8961406,5.91131983 22.3759901,7.92715181 C17.4207987,8.55123418 13.6618017,12.6751652 13.5197462,17.6431496 C10.3259376,15.1014085 7.75653999,15.6740418 7.60525154,15.7145973 C7.36585438,15.7735274 7.15270518,15.9091062 6.99851495,16.1007277 C4.45114455,19.5199904 3.73163409,23.9574719 5.06882878,28.0005544 L1.98264992,28.0005544 C1.19178196,28.0000294 0.476624176,28.4679272 0.163495334,29.1905765 C-0.115471599,29.8306711 -0.0334302595,30.5698576 0.378886825,31.134091 L0.741609788,32.0156812 C3.99279463,39.8757066 9.63729153,46.5245791 16.8817264,51.0279469 L16.8817264,52.7669777 C16.8838368,54.5520764 18.3378943,55.9985563 20.131988,56 L47.3978071,56 C49.191769,55.9985563 50.6459583,54.5520764 50.6480687,52.7669777 L50.6480687,51.0279469 C57.8914484,46.526154 63.5347582,39.878594 66.7848879,32.0200124 L67.1509083,31.134091 C67.5889457,30.533502 67.6517298,29.739454 67.3134082,29.0783598 Z M60.6910102,21.9846892 C60.234375,24.1657619 59.2998687,26.2196557 57.9541006,28.0001607 L55.4282297,28.0001607 C55.4204477,27.9802111 55.4095,27.9619676 55.4015861,27.9421493 C55.2438346,27.5456502 55.0656387,27.1575511 54.8677898,26.7792955 C54.8366616,26.719709 54.8022359,26.6620913 54.7699205,26.6030299 C54.578139,26.2497114 54.3709253,25.9083363 54.1478836,25.5787736 C54.1263841,25.5471429 54.1063354,25.514856 54.084572,25.4833566 C53.5565793,24.718708 52.9429839,24.0162709 52.2553931,23.3896948 C54.5069134,21.2350028 57.8571546,20.676938 60.6910102,21.9846892 Z M45.0836346,19.6600316 C45.1493205,19.5314089 45.216721,19.4023925 45.2760757,19.2769198 C45.4003248,19.0129809 45.5134943,18.7512731 45.6136059,18.4923216 C45.6857548,18.3066062 45.7437904,18.1291595 45.8020899,17.9509252 C45.8367794,17.8444834 45.8716008,17.7379104 45.9019376,17.632256 C45.9623475,17.4237036 46.0147115,17.220926 46.0574469,17.0232672 C46.061272,17.00568 46.0674712,16.9875678 46.0710325,16.9699806 L48.0826281,14.712653 L49.8511334,16.4722897 C50.291545,16.9044881 50.999844,16.9021256 51.437222,16.4669086 C51.8745999,16.0316915 51.877106,15.3267606 51.4426298,14.8886561 L49.5786295,13.0338649 L51.785436,10.5573538 L53.2277544,11.9924152 C53.668166,12.4246135 54.3764651,12.4222511 54.813843,11.987034 C55.2512209,11.5518169 55.253727,10.8468861 54.8192509,10.4087815 L53.2814374,8.87856571 L54.9593279,6.99568755 L56.6042435,8.63247644 C57.0446552,9.06467481 57.7529542,9.06231236 58.1903321,8.62709529 C58.6277101,8.19187823 58.6302162,7.48694734 58.19574,7.04884283 L56.47274,5.33435535 C57.0457104,4.85123291 57.7553284,4.55710703 58.503461,4.49266445 C60.1367695,4.35866065 61.658887,5.32634925 62.2228882,6.85748382 C62.7868894,8.38861839 62.2538845,10.1058621 60.9205149,11.0539948 C60.8883315,11.0765694 60.8574671,11.1011127 60.8281854,11.1272309 L49.2293603,21.3613943 C47.8489026,20.7062062 46.3583091,20.3116759 44.833158,20.197753 L44.8045358,20.1942093 C44.9059663,20.0146626 44.9930199,19.8376096 45.0836346,19.6600316 Z M44.6437506,22.4527181 C45.0365466,22.4804114 45.427496,22.5304167 45.8144884,22.6026029 C45.9012782,22.6191401 45.9867489,22.6389585 46.0727472,22.6575956 C46.4944291,22.7492065 46.9099118,22.8673293 47.3166891,23.0111767 C47.3836939,23.0350638 47.4505669,23.0586883 47.5169122,23.0838879 C47.9470357,23.2462412 48.3651563,23.4385189 48.7682404,23.6591461 C49.215247,23.9019542 49.6431282,24.1782304 50.0479271,24.4857435 C50.3995705,24.7553261 50.7334075,25.0472208 51.0471959,25.3597214 C51.0978452,25.4102517 51.1525834,25.4561883 51.2023094,25.5077687 C51.5124045,25.8315565 51.8004725,26.1756877 52.064271,26.5376686 C52.1023899,26.5897739 52.1469719,26.6361043 52.1841675,26.6889971 C52.479358,27.1054458 52.7421013,27.5438128 52.9700233,28.0002919 L34.8223999,28.0002919 C35.678558,26.2779296 37.0131147,24.8359122 38.6677909,23.8452552 C38.7051184,23.8228119 38.7456114,23.8060122 38.7832027,23.7842251 C39.1563457,23.5662228 39.5430744,23.3723701 39.9411463,23.2038482 C40.0239791,23.1690676 40.1114283,23.1439993 40.1953162,23.1114499 C40.5561926,22.9685212 40.9251148,22.8464609 41.3002363,22.7459253 C41.4229026,22.7139009 41.5495259,22.6939512 41.673775,22.6663892 C42.0229123,22.5861969 42.3761386,22.5246418 42.7318709,22.4817238 C42.8814446,22.4647929 43.0340521,22.4604617 43.1853405,22.4499619 C43.5389624,22.4229249 43.8937714,22.4146563 44.2483166,22.4251561 C44.3812711,22.4297498 44.5119833,22.443137 44.6437506,22.4527181 Z M33.3865445,19.0170495 C36.3351525,16.5209826 39.7810206,14.6738038 43.4979418,13.5969171 C43.980693,14.4817885 44.1096905,15.5154947 43.8588181,16.4909269 C43.8167423,16.6988231 43.7660929,16.9094755 43.7006709,17.124984 C43.6682237,17.2328696 43.6306324,17.3441676 43.5913264,17.456778 C43.5025582,17.7086422 43.4015234,17.9643125 43.2820227,18.2256265 C43.2493116,18.2975502 43.2167325,18.3693426 43.1811197,18.4429725 C43.040647,18.7327672 42.879598,19.0287306 42.7024573,19.3291563 C42.6627556,19.3967489 42.6266152,19.4623727 42.5846713,19.5310152 C42.4310086,19.7819606 42.2525489,20.0397309 42.0740892,20.2975012 C41.536336,20.376906 41.0043863,20.4914851 40.4818014,20.6405824 L40.4579276,20.6474073 C37.3420714,21.5338536 34.7042181,23.608747 33.1179976,26.420727 C33.0817254,26.4845133 33.0465082,26.5485622 33.0112911,26.613136 C32.7755872,27.0449406 32.5658673,27.4902637 32.3833188,27.9468742 C32.3759324,27.9653801 32.3653805,27.981786 32.358126,28.0002919 L30.1763804,28.0002919 C30.1507919,27.8676006 30.1137282,27.7326781 30.0935476,27.6010367 C30.0816767,27.5249131 30.0687506,27.4483958 30.0587262,27.3725346 C30.0055708,26.9759044 29.9777401,26.5763867 29.9753659,26.1762127 C29.975234,26.1407759 29.9776082,26.105864 29.977872,26.0705584 C29.997525,24.363027 30.5149658,22.6978887 31.4672784,21.2772646 C31.4912841,21.2406465 31.515026,21.2040284 31.5394273,21.1678041 C32.0709813,20.3834684 32.6907759,19.661869 33.3865445,19.0170495 Z M17.237063,13.3311407 C18.7177641,11.2845968 21.0996009,10.0742314 23.6339133,10.0806625 C27.8982164,10.0920811 31.382731,13.4711819 31.5039464,17.7127108 C31.4602878,17.7560225 31.4255983,17.8019592 31.382731,17.8454022 C31.111678,18.1199722 30.8528917,18.4049107 30.6026788,18.6991678 C30.523803,18.7922224 30.4449273,18.8851457 30.369349,18.979119 C30.1340407,19.2706199 29.9139008,19.5727519 29.7031258,19.8831525 C29.6421884,19.9733196 29.5801957,20.063093 29.52216,20.1540476 C29.4351065,20.2896263 29.3357864,20.4162803 29.2540089,20.5554027 C28.4142063,21.967627 27.9057346,23.5502106 27.766449,25.1852933 C27.7643386,25.2085241 27.7635472,25.2321487 27.7617006,25.2555108 C27.7303086,25.6563409 27.7208119,26.0586149 27.7333423,26.460495 C27.7355846,26.5417373 27.7375631,26.6228483 27.7413881,26.7044843 C27.7597221,27.0606903 27.7958625,27.4201775 27.8476989,27.7822897 C27.8579871,27.8553946 27.8575914,27.9270558 27.8691985,28.0002919 L26.3513019,28.0002919 C26.3096217,27.8981813 26.2498713,27.8069642 26.2046299,27.7069535 C26.1184997,27.5165133 26.0248512,27.3328979 25.9261905,27.1502012 C25.8035242,26.9234053 25.6733397,26.7039593 25.5322075,26.4898945 C25.4187741,26.3174351 25.3021751,26.1497007 25.1773984,25.9861662 C25.0218892,25.7820762 24.8567513,25.5886172 24.6850185,25.3990956 C24.5485028,25.2485546 24.4123827,25.1001136 24.2662384,24.9590224 C24.0802604,24.7796069 23.8835986,24.6144974 23.6831117,24.4516192 C23.5283939,24.3257527 23.376446,24.198705 23.2138142,24.0832071 C22.998027,23.9300412 22.7711603,23.7959061 22.5425788,23.6619023 C22.3757263,23.5641229 22.213754,23.4609622 22.0408341,23.3738138 C21.7933911,23.2491286 21.5351323,23.1487242 21.276346,23.0467448 C21.1064597,22.9798085 20.9421132,22.9028974 20.7678743,22.8461984 C20.4714967,22.7555064 20.1705026,22.6803015 19.8663429,22.6205838 C19.7154501,22.5882969 19.5698333,22.5409165 19.4166983,22.5163732 C18.9508301,22.4402496 18.479686,22.4012691 18.0076185,22.4000878 C17.8449867,22.4000878 17.6867076,22.4066502 17.5350235,22.4164938 C17.387692,22.1740795 17.2304681,21.9340276 17.0723209,21.6924007 C16.9835527,21.5566907 16.8949164,21.4238681 16.8065439,21.2941955 C16.5932628,20.9819575 16.3803774,20.6772005 16.1688109,20.3986931 C15.3584219,18.0093304 15.7562301,15.3776847 17.237063,13.3311407 Z M16.0555095,24.941829 C16.0694908,24.9374978 16.0828126,24.9317229 16.0967939,24.927523 C16.4062296,24.8365684 16.7217326,24.7680571 17.0410607,24.7222517 C17.1308841,24.7093895 17.2399648,24.6973147 17.3453523,24.6851087 C17.9011758,24.6141037 18.4646494,24.6270972 19.0166478,24.7236955 C19.1211121,24.7397077 19.2224107,24.7659572 19.3255559,24.7868256 C19.5508398,24.8311872 19.7737496,24.8869675 19.9933619,24.9539038 C20.107059,24.9893406 20.2190415,25.0292399 20.3304964,25.0704516 C20.5363911,25.1467065 20.7374056,25.2334612 20.9343312,25.3287469 C21.0370807,25.378621 21.1407535,25.4265264 21.2407332,25.4813879 C21.4567841,25.6012169 21.6661083,25.7327271 21.8677822,25.8749995 C21.9343914,25.9215924 22.0053532,25.9617541 22.0703795,26.0105782 C22.3316719,26.2069247 22.5784554,26.4216457 22.8088834,26.6530353 C22.8628302,26.7072405 22.9091269,26.7687957 22.9612271,26.8248384 C23.1336194,27.0084538 23.2955917,27.201519 23.4463526,27.4029841 C23.5146764,27.4952512 23.5761414,27.5926369 23.6397169,27.6887101 C23.706326,27.7892458 23.7643617,27.8956876 23.8255629,28.0000294 L12.1808368,28.0000294 C12.2078762,27.9538303 12.2310905,27.9052687 12.259185,27.8597258 C12.3389841,27.7309719 12.4251143,27.6072054 12.5129592,27.4844888 C12.6014636,27.3609849 12.6924741,27.2395808 12.7888924,27.1226392 C12.886366,27.0046476 12.9876646,26.8901997 13.0929202,26.779558 C13.1973844,26.6691787 13.3055418,26.5624744 13.4172605,26.4595763 C13.5259455,26.3590406 13.6367409,26.2611299 13.7516251,26.1679441 C13.8796993,26.0643898 14.0127857,25.9673978 14.1483781,25.8732932 C14.2564036,25.7979571 14.3642972,25.722621 14.4768072,25.6534535 C14.647353,25.5492429 14.8243618,25.4552696 15.0041405,25.3661525 C15.0894793,25.3236283 15.1729715,25.2778228 15.2601569,25.2387111 C15.5188114,25.1233444 15.7844565,25.0241212 16.0555095,24.941829 Z M8.49623103,17.8602331 C9.38153886,17.89672 11.6535036,18.2236578 14.2866085,21.6385892 C14.4835341,21.8933408 14.6867909,22.1765732 14.9033694,22.4889425 C14.9703743,22.5865907 15.0368515,22.6792515 15.104252,22.7809684 C15.1223222,22.8082679 15.1406562,22.840686 15.1587264,22.8683793 C15.0935682,22.8902976 15.0340816,22.9245533 14.969451,22.9479153 C14.6357459,23.0678757 14.309559,23.2073919 13.9924732,23.3658077 C13.8927573,23.4156818 13.7948881,23.4667371 13.6971507,23.5202862 C12.9428189,23.9303037 12.251271,24.4454505 11.6433474,25.0501083 C11.587554,25.105626 11.5341348,25.1624562 11.4797923,25.2194177 C11.1944942,25.5156435 10.9301681,25.8310315 10.6882648,26.1633504 C10.6724369,26.1852688 10.6543667,26.2049559 10.6388026,26.2270055 C10.3909639,26.5812428 10.1692412,26.9528048 9.97561313,27.3390665 C9.93169067,27.4255587 9.89238469,27.5140196 9.85110022,27.6020867 C9.78897567,27.735303 9.71814577,27.8635319 9.66248428,28.0004232 L7.4696591,28.0004232 C6.07060366,24.6643715 6.45667279,20.8513661 8.49623103,17.8602331 Z M64.7019348,31.1709716 C61.5871338,38.6894907 56.1544671,45.0301938 49.186493,49.2798601 L46.1458194,49.2798601 C45.5241782,49.2798601 45.020323,49.7812259 45.020323,50.3997959 C45.020323,51.0183659 45.5241782,51.5197317 46.1458194,51.5197317 L48.396944,51.5197317 L48.396944,52.766584 C48.3960207,53.3150677 47.9490142,53.7594721 47.3978071,53.7597346 L20.131988,53.7597346 C19.580781,53.7594721 19.1337744,53.315199 19.1328511,52.766584 L19.1328511,51.5197317 L32.6393352,51.5197317 C33.2609764,51.5197317 33.7648316,51.0183659 33.7648316,50.3997959 C33.7648316,49.7812259 33.2609764,49.2798601 32.6393352,49.2798601 L18.3423788,49.2798601 C11.372822,45.0298001 5.93949579,38.6872595 2.82561808,31.1666404 L2.44416543,30.2402948 L6.75173143,30.2402948 L65.085234,30.2402948 L64.7019348,31.1709716 Z" id="Shape"></path>
                    <path d="M48.8890296,45.2941162 L48.8890296,45.2941162 C49.0918846,45.2938588 49.2907905,45.2400628 49.4649484,45.1385198 C54.0486037,42.3869483 57.7177659,38.3948529 60.0278913,33.6457537 C60.1850678,33.2847547 60.1333338,32.8693163 59.8921719,32.555807 C59.6510101,32.2422977 59.2571474,32.078336 58.8588091,32.125697 C58.4604707,32.173058 58.1183421,32.4246634 57.9611656,32.7855336 C55.8529737,37.1092847 52.506721,40.7420541 48.3285125,43.2433073 C48.2896791,43.2653148 48.2524254,43.2897675 48.2166197,43.3162793 L48.2122756,43.3194968 C47.8261797,43.6035341 47.6693981,44.0972211 47.8230203,44.5452202 C47.9763793,44.993348 48.405916,45.2948884 48.8890296,45.2941162 Z" id="Shape"></path>
                    <path d="M19.353255,19.7647058 C19.6810516,19.7648505 19.995383,19.6348526 20.2270414,19.4030857 C20.4586997,19.1713187 20.5888628,18.8570364 20.588718,18.5294358 C20.590745,16.4840673 22.2482606,14.8262316 24.2939487,14.8234811 C24.9763274,14.8234811 25.5294118,14.2704832 25.5294118,13.5882111 C25.5294118,12.9059391 24.9763274,12.3529412 24.2939487,12.3529412 C20.8840824,12.3569946 18.1211221,15.120247 18.1176472,18.5295806 C18.1175024,18.8573259 18.2475207,19.1716082 18.4793238,19.4032304 C18.711127,19.6348526 19.0256032,19.7648505 19.353255,19.7647058 Z" id="Shape"></path>
                </g>
            </g>
        </g>
    </g>
</svg>