<?xml version="1.0" encoding="UTF-8"?>
<svg width="46px" height="56px" viewBox="0 0 46 56" version="1.1" xmlns="http://www.w3.org/2000/svg" xmlns:xlink="http://www.w3.org/1999/xlink">
    <!-- Generator: sketchtool 47.1 (45422) - http://www.bohemiancoding.com/sketch -->
    <title>AAF9735B-7BAB-44F4-A484-ABBFFB1416CD</title>
    <desc>Created with sketchtool.</desc>
    <defs></defs>
    <g id="Project" stroke="none" stroke-width="1" fill="none" fill-rule="evenodd" opacity="0.300000012">
        <g id="1.0-Home" transform="translate(-445.000000, -659.000000)" fill-rule="nonzero" fill="#FFFFFF">
            <g id="Blocco-eventi" transform="translate(261.000000, 464.000000)">
                <g id="007-lemonade" transform="translate(184.000000, 195.000000)">
                    <path d="M30.7112674,56 L9.28873265,56 C8.85387899,56 8.48750622,55.6787149 8.43785758,55.2508983 L4.00543191,16.9418728 C3.97803956,16.7017544 4.05508056,16.463327 4.21772267,16.2823927 C4.38036479,16.1014585 4.6114878,16 4.85630698,16 L35.143693,16 C35.3885122,16 35.6196352,16.1031494 35.7822773,16.2823927 C35.9449194,16.461636 36.0219604,16.7017544 35.9945681,16.9418728 L31.5621424,55.2492074 C31.5124938,55.6787149 31.146121,56 30.7112674,56 Z M10.0522946,54.3090256 L29.9477054,54.3090256 L34.1849605,17.6926654 L5.81503945,17.6926654 L10.0522946,54.3090256 Z" id="Shape"></path>
                    <path d="M34.142318,26 L5.85768197,26 C5.38424152,26 5,25.552 5,25 C5,24.448 5.38424152,24 5.85768197,24 L34.142318,24 C34.6157585,24 35,24.448 35,25 C35,25.552 34.6157585,26 34.142318,26 Z" id="Shape"></path>
                    <path d="M19.1442543,38 L13.8557457,38 C13.3833741,38 13,37.6165322 13,37.144045 L13,31.855955 C13,31.3834678 13.3833741,31 13.8557457,31 L19.1442543,31 C19.6166259,31 20,31.3834678 20,31.855955 L20,37.144045 C20,37.6182441 19.6166259,38 19.1442543,38 Z M14.7114914,36.28809 L18.2885086,36.28809 L18.2885086,32.71191 L14.7114914,32.71191 L14.7114914,36.28809 Z" id="Shape"></path>
                    <path d="M25.3861975,49 C25.2334936,49 25.0790739,48.9605373 24.9400961,48.8747487 L20.4121675,46.119221 C20.0072447,45.87215 19.8785617,45.3454084 20.1256332,44.9404866 L22.8811669,40.4125677 C23.1282384,40.0059301 23.6549811,39.878963 24.0599039,40.126034 L28.5878325,42.8815617 C28.9927553,43.1286327 29.1214383,43.6553743 28.8743668,44.0602962 L26.1188331,48.588215 C25.9575504,48.8541595 25.6744476,49 25.3861975,49 Z M22.0387216,45.0983375 L25.0996632,46.9616644 L26.9629942,43.9007295 L23.9020526,42.0374026 L22.0387216,45.0983375 Z" id="Shape"></path>
                    <path d="M35.4991556,27 C35.1664656,27 34.8354644,26.984801 34.5095296,26.9560917 C34.0468034,26.9121834 33.7039807,26.5001206 33.747889,26.0357057 C33.7917973,25.5729795 34.1869723,25.252111 34.668275,25.2740651 C34.9418577,25.3010856 35.2188179,25.3112183 35.4991556,25.3112183 C40.3577805,25.3112183 44.3112183,21.3594692 44.3112183,16.5008444 C44.3112183,11.6422195 40.3577805,7.68878166 35.4991556,7.68878166 C30.6405308,7.68878166 26.6887817,11.6422195 26.6887817,16.5008444 C26.6887817,16.9669481 26.3104946,17.3452352 25.8443908,17.3452352 C25.3782871,17.3452352 25,16.9669481 25,16.5008444 C25,10.7100121 29.7100121,6 35.4991556,6 C41.2899879,6 46,10.7100121 46,16.5008444 C45.9983112,22.2899879 41.2882992,27 35.4991556,27 Z" id="Shape"></path>
                    <path d="M13.1652289,17 C12.7689567,17 12.4159747,16.7128548 12.3460443,16.3071786 L9.83021519,1.66944908 L0.832504674,1.66944908 C0.372962094,1.66944908 0,1.29549249 0,0.834724541 C0,0.373956594 0.371297085,0 0.832504674,0 L10.5311841,0 C10.9357814,0 11.2821033,0.292153589 11.3520337,0.692821369 L13.9877435,16.0233723 C14.065999,16.4774624 13.7613023,16.9098497 13.3084197,16.9883139 C13.2601344,16.9966611 13.2118492,17 13.1652289,17 Z" id="Shape"></path>
                    <path d="M35,18 C34.448,18 34,17.6093591 34,17.1280337 L34,6.87196628 C34,6.3906409 34.448,6 35,6 C35.552,6 36,6.3906409 36,6.87196628 L36,17.1280337 C36,17.6093591 35.554,18 35,18 Z" id="Shape"></path>
                    <path d="M41.1711769,24 C40.9591042,24 40.7470315,23.9188227 40.5846634,23.7581246 L27.2423096,10.4135627 C26.9192301,10.09051 26.9192301,9.56534224 27.2423096,9.24228953 C27.5653891,8.91923682 28.0906003,8.91923682 28.4136798,9.24228953 L41.7576904,22.5868515 C42.0807699,22.9099042 42.0807699,23.4350719 41.7576904,23.7581246 C41.5953223,23.9188227 41.3832496,24 41.1711769,24 Z" id="Shape"></path>
                    <path d="M34.8867061,18 C34.6598227,18 34.4329394,17.913142 34.2592319,17.7411985 C33.9135894,17.3955389 33.9135894,16.8336206 34.2592319,16.487961 L41.4875923,9.25924467 C41.8332349,8.91358511 42.3951256,8.91358511 42.7407681,9.25924467 C43.0864106,9.60490423 43.0864106,10.1668226 42.7407681,10.5124822 L35.5124077,17.7411985 C35.3404727,17.913142 35.1135894,18 34.8867061,18 Z" id="Shape"></path>
                    <path d="M44.1844603,18 L34.8155397,18 C34.3653618,18 34,17.552 34,17 C34,16.448 34.3653618,16 34.8155397,16 L44.1844603,16 C44.6346382,16 45,16.448 45,17 C45,17.552 44.6362693,18 44.1844603,18 Z" id="Shape"></path>
                </g>
            </g>
        </g>
    </g>
</svg>