<?xml version="1.0" encoding="UTF-8"?>
<svg width="46px" height="57px" viewBox="0 0 46 57" version="1.1" xmlns="http://www.w3.org/2000/svg" xmlns:xlink="http://www.w3.org/1999/xlink">
    <!-- Generator: sketchtool 47.1 (45422) - http://www.bohemiancoding.com/sketch -->
    <title>E0425088-C0D2-4297-9466-3FD570E9B623</title>
    <desc>Created with sketchtool.</desc>
    <defs></defs>
    <g id="Project" stroke="none" stroke-width="1" fill="none" fill-rule="evenodd" opacity="0.5">
        <g id="1.0-Home" transform="translate(-278.000000, -487.000000)" fill-rule="nonzero" fill="#FFFFFF">
            <g id="Blocco-eventi" transform="translate(261.000000, 464.000000)">
                <g id="008-groceries" transform="translate(17.000000, 23.000000)">
                    <path d="M31.272,25.308 C31.378,25.344 31.487,25.361 31.593,25.361 C32.01,25.361 32.399,25.099 32.54,24.682 C32.853,23.764 33.854,23.271 34.772,23.582 C36.734,24.246 38.875,23.193 39.54,21.23 C39.718,20.708 39.438,20.139 38.915,19.961 C38.39,19.784 37.824,20.064 37.646,20.587 C37.334,21.506 36.333,21.999 35.414,21.687 C33.455,21.026 31.312,22.077 30.646,24.039 C30.469,24.561 30.749,25.13 31.272,25.308 Z" id="Shape"></path>
                    <path d="M33.638,18.34 C33.744,18.376 33.853,18.393 33.959,18.393 C34.376,18.393 34.765,18.131 34.906,17.714 C35.057,17.269 35.372,16.909 35.794,16.701 C36.216,16.493 36.693,16.463 37.138,16.614 C39.1,17.278 41.24,16.225 41.906,14.261 C42.084,13.739 41.803,13.17 41.281,12.992 C40.758,12.812 40.19,13.095 40.013,13.618 C39.701,14.538 38.702,15.031 37.781,14.719 C36.829,14.396 35.81,14.462 34.91,14.907 C34.01,15.351 33.336,16.12 33.013,17.071 C32.834,17.594 33.115,18.162 33.638,18.34 Z" id="Shape"></path>
                    <path d="M36.002,11.372 C36.109,11.408 36.217,11.425 36.324,11.425 C36.741,11.425 37.13,11.163 37.271,10.746 C37.501,10.068 38.242,9.703 38.919,9.933 C39.754,10.216 40.649,10.158 41.44,9.769 C42.23,9.379 42.821,8.705 43.105,7.87 C43.283,7.348 43.003,6.779 42.48,6.601 C41.955,6.422 41.389,6.704 41.211,7.227 C41.099,7.556 40.866,7.822 40.555,7.975 C40.244,8.128 39.892,8.151 39.562,8.038 C37.84,7.457 35.961,8.381 35.377,10.102 C35.2,10.626 35.479,11.194 36.002,11.372 Z" id="Shape"></path>
                    <path d="M43.246,25.234 C43.072,25.115 42.876,25.047 42.676,25.021 C44.663,18.564 45.753,12.238 45.909,6.213 C45.958,4.318 45.032,1.788 43.165,0.617 C42.269,0.054 40.801,-0.41 38.895,0.571 C35.908,2.112 33.772,6.645 32.056,10.289 C31.957,10.499 31.86,10.704 31.764,10.907 C31.385,9.164 30.233,7.673 28.595,6.895 C28.209,5.039 26.737,3.585 24.887,3.208 C24.867,3.104 24.842,3.002 24.811,2.899 C24.43,1.597 23.281,0.617 21.952,0.459 C21.203,0.37 20.461,0.525 19.827,0.896 C19.287,0.595 18.681,0.435 18.059,0.435 C16.32,0.435 14.859,1.648 14.478,3.271 C12.577,3.789 11.183,5.534 11.168,7.562 C8.999,8.122 7.419,10.082 7.419,12.413 C7.419,13.031 7.535,13.643 7.758,14.22 C7.195,14.915 6.883,15.785 6.883,16.698 C6.883,17.246 6.996,17.774 7.209,18.262 C6.21,17.172 4.804,16.281 3.225,16.339 C2.673,16.357 2.239,16.818 2.256,17.37 C2.273,17.911 2.717,18.339 3.255,18.339 C3.289,18.34 3.32,18.337 3.352,18.337 C4.289,18.337 5.16,18.957 5.794,19.677 C4.208,20.134 2.296,20.878 1.404,22.56 C0.867,23.575 0.804,24.82 1.162,26.246 C0.989,26.535 0.894,26.871 0.912,27.229 L2.614,51.416 C2.769,54.449 5.269,56.824 8.305,56.824 L36.376,56.824 C39.412,56.824 41.912,54.449 42.066,51.434 L43.811,26.406 C43.811,26.4 43.812,26.394 43.812,26.388 C43.84,25.927 43.627,25.496 43.246,25.234 Z M32.58,13.767 C32.976,13.028 33.408,12.112 33.865,11.141 C35.368,7.949 37.428,3.578 39.811,2.348 C40.681,1.9 41.43,1.891 42.102,2.31 C43.261,3.038 43.943,4.875 43.91,6.161 C43.757,12.073 42.677,18.295 40.699,24.655 C40.634,24.864 40.49,25.286 40.285,25.865 L38.581,26.622 C38.544,26.639 38.508,26.657 38.473,26.679 C37.981,26.974 37.429,27.12 36.877,27.126 C36.325,27.12 35.774,26.974 35.282,26.679 L34.569,26.251 C33.749,25.759 32.83,25.513 31.911,25.513 C31.9,25.513 31.889,25.515 31.877,25.515 C30.947,25.509 30.015,25.752 29.185,26.251 L28.473,26.679 C28.076,26.917 27.637,27.033 27.193,27.083 C27.218,26.996 27.247,26.911 27.273,26.825 C27.547,25.894 27.841,24.976 28.149,24.065 C28.266,23.719 28.388,23.375 28.51,23.032 C28.767,22.309 29.036,21.595 29.314,20.886 C29.438,20.569 29.559,20.249 29.687,19.935 C30.559,17.808 31.521,15.745 32.58,13.767 Z M19.832,16.139 C19.949,15.989 20.063,15.843 20.171,15.701 C20.171,15.699 20.172,15.698 20.173,15.697 C20.252,15.592 20.321,15.483 20.379,15.374 C20.625,14.911 20.683,14.391 20.569,13.883 L24.743,12.97 C24.771,13.098 24.801,13.225 24.849,13.343 C25.036,13.801 25.37,14.182 25.835,14.448 C25.987,14.532 26.146,14.616 26.31,14.703 C26.445,14.774 26.58,14.848 26.716,14.922 C26.781,14.957 26.847,14.992 26.912,15.028 C27.031,15.095 27.146,15.169 27.262,15.242 C27.361,15.303 27.459,15.366 27.555,15.433 C27.666,15.51 27.772,15.595 27.878,15.681 C27.971,15.757 28.06,15.84 28.148,15.925 C28.243,16.018 28.337,16.113 28.424,16.217 C28.578,16.401 28.726,16.592 28.847,16.821 C28.423,17.757 28.024,18.712 27.638,19.675 C27.578,19.824 27.514,19.969 27.455,20.118 C26.359,20.396 25.3,20.916 23.992,21.847 C22.344,23.018 21.117,23.329 19.095,23.036 L18.488,20.257 C18.076,18.378 18.969,17.24 19.832,16.139 Z M24.791,10.066 C24.817,10.061 24.843,10.058 24.869,10.058 C25.058,10.058 25.235,10.193 25.276,10.383 C25.308,10.527 25.254,10.64 25.218,10.695 C25.183,10.749 25.104,10.844 24.961,10.875 L19.437,12.084 C19.217,12.132 18.993,11.986 18.945,11.768 C18.897,11.549 19.042,11.324 19.261,11.276 L22.196,10.634 L24.791,10.066 Z M21.559,25.533 C21.483,25.538 21.406,25.54 21.33,25.548 C20.785,25.603 20.247,25.741 19.736,25.971 L19.545,25.096 C19.833,25.12 20.12,25.144 20.389,25.144 C22.133,25.144 23.537,24.625 25.151,23.477 C25.659,23.115 26.109,22.841 26.537,22.614 C26.445,22.875 26.354,23.135 26.265,23.397 C26.201,23.585 26.132,23.77 26.07,23.959 C25.776,24.849 25.496,25.746 25.235,26.651 L24.57,26.253 C23.75,25.761 22.831,25.515 21.912,25.515 C21.9,25.515 21.887,25.517 21.875,25.517 C21.769,25.515 21.664,25.527 21.559,25.533 Z M9.598,15.192 L10.253,14.652 L9.828,13.919 C9.562,13.459 9.421,12.939 9.421,12.413 C9.421,10.793 10.69,9.472 12.31,9.404 L13.524,9.353 L13.241,8.171 C13.193,7.973 13.169,7.778 13.169,7.593 C13.169,6.305 14.175,5.22 15.459,5.122 L16.383,5.052 L16.383,4.057 C16.412,3.158 17.153,2.435 18.06,2.435 C18.582,2.435 18.956,2.673 19.177,2.873 L19.878,3.506 L20.55,2.842 C20.858,2.538 21.281,2.396 21.717,2.446 C22.253,2.509 22.737,2.927 22.893,3.464 C22.946,3.644 22.961,3.818 22.94,3.995 L22.823,5.112 L23.949,5.112 C25.386,5.112 26.588,6.235 26.687,7.669 L26.732,8.326 L27.353,8.544 C28.916,9.093 29.944,10.572 29.909,12.227 C29.894,12.934 29.666,13.615 29.253,14.212 C28.584,13.644 27.863,13.261 27.257,12.942 C27.1,12.859 26.948,12.779 26.795,12.694 C26.752,12.67 26.7,12.628 26.682,12.523 C26.658,12.379 26.712,12.206 26.821,12.079 C27.257,11.573 27.432,10.883 27.291,10.232 L27.17,9.681 C27.049,9.125 26.717,8.65 26.237,8.342 C25.758,8.035 25.188,7.932 24.633,8.054 L24.365,8.113 C24.362,8.114 24.359,8.113 24.356,8.114 L21.421,8.756 L18.557,9.381 C18.002,9.502 17.527,9.833 17.219,10.314 C16.911,10.793 16.809,11.364 16.93,11.919 L16.99,12.191 C16.99,12.192 16.99,12.193 16.99,12.194 C16.99,12.195 16.991,12.196 16.991,12.198 L17.05,12.469 C17.195,13.135 17.658,13.696 18.287,13.966 C18.443,14.033 18.573,14.16 18.618,14.289 C18.644,14.363 18.629,14.401 18.571,14.497 C18.571,14.497 18.571,14.497 18.571,14.498 C18.472,14.631 18.365,14.766 18.256,14.905 C18.146,15.045 18.032,15.192 17.916,15.344 C17.877,15.395 17.84,15.448 17.801,15.5 C17.718,15.613 17.635,15.728 17.553,15.848 C17.508,15.913 17.465,15.98 17.421,16.048 C17.345,16.165 17.272,16.286 17.2,16.41 C17.158,16.482 17.117,16.553 17.077,16.628 C17.002,16.768 16.934,16.915 16.867,17.065 C16.838,17.129 16.807,17.19 16.781,17.257 C16.693,17.475 16.615,17.703 16.553,17.943 C16.543,17.981 16.539,18.022 16.53,18.061 C16.482,18.265 16.443,18.476 16.418,18.696 C16.408,18.784 16.406,18.876 16.4,18.967 C16.392,19.085 16.377,19.197 16.377,19.32 C16.373,19.315 16.369,19.31 16.365,19.305 C16.351,19.287 16.337,19.271 16.324,19.253 C16.15,19.024 15.976,18.813 15.801,18.613 C15.746,18.55 15.69,18.489 15.634,18.429 C15.487,18.27 15.34,18.121 15.192,17.981 C15.144,17.936 15.096,17.887 15.047,17.843 C14.86,17.676 14.672,17.523 14.483,17.387 C14.43,17.349 14.376,17.317 14.323,17.281 C14.181,17.186 14.039,17.098 13.895,17.02 C13.825,16.982 13.756,16.945 13.685,16.911 C13.536,16.838 13.386,16.776 13.235,16.722 C13.185,16.704 13.135,16.68 13.085,16.664 C12.921,16.612 12.756,16.57 12.59,16.539 C12.571,16.535 12.552,16.537 12.533,16.534 C12.499,16.528 12.466,16.515 12.432,16.51 C12.316,16.493 12.206,16.5 12.092,16.492 C12.012,16.487 11.933,16.47 11.853,16.47 C11.829,16.47 11.804,16.476 11.779,16.476 C11.624,16.478 11.474,16.496 11.323,16.515 C11.248,16.525 11.173,16.531 11.098,16.545 C10.901,16.581 10.71,16.631 10.521,16.691 C10.492,16.7 10.464,16.707 10.435,16.717 C9.937,16.886 9.465,17.125 9.023,17.414 C8.932,17.189 8.884,16.947 8.884,16.698 C8.885,16.113 9.145,15.564 9.598,15.192 Z M3.173,23.495 C3.596,22.698 4.623,22.09 6.406,21.58 C7.24,21.342 8.014,20.897 8.642,20.297 C8.927,20.024 9.194,19.793 9.452,19.583 C10.258,18.928 10.953,18.572 11.582,18.491 C11.596,18.489 11.61,18.487 11.624,18.486 C11.823,18.464 12.016,18.47 12.203,18.503 C12.252,18.512 12.302,18.529 12.352,18.542 C12.445,18.565 12.537,18.588 12.63,18.625 C12.69,18.648 12.75,18.683 12.811,18.711 C12.898,18.753 12.984,18.791 13.071,18.844 C13.139,18.885 13.207,18.938 13.275,18.985 C13.356,19.042 13.437,19.094 13.519,19.16 C13.595,19.221 13.671,19.295 13.747,19.364 C13.823,19.433 13.899,19.496 13.975,19.573 C14.059,19.658 14.144,19.757 14.229,19.852 C14.298,19.929 14.367,20 14.437,20.083 C14.532,20.197 14.628,20.327 14.724,20.453 C14.785,20.533 14.845,20.605 14.906,20.69 C15.015,20.842 15.125,21.011 15.235,21.179 C15.283,21.253 15.332,21.319 15.38,21.395 C15.539,21.646 15.699,21.913 15.86,22.197 C16.596,23.496 16.84,25.415 16.52,27.086 C16.467,27.081 16.415,27.073 16.362,27.065 C15.981,27 15.614,26.878 15.28,26.678 L14.567,26.25 C13.747,25.758 12.828,25.512 11.909,25.512 C11.898,25.512 11.887,25.514 11.875,25.514 C10.945,25.508 10.013,25.751 9.183,26.25 L8.836,26.458 C8.231,26.821 7.553,27.004 6.875,27.01 C6.196,27.004 5.519,26.822 4.914,26.458 L3.569,25.65 C3.569,25.65 3.568,25.65 3.568,25.649 C3.391,25.544 3.2,25.472 3.004,25.436 C2.847,24.645 2.903,24.005 3.173,23.495 Z M40.074,51.313 C39.973,53.281 38.35,54.823 36.38,54.823 L8.308,54.823 C6.337,54.823 4.715,53.281 4.613,51.294 L2.949,27.652 L3.819,28.174 C4.762,28.74 5.821,29.018 6.877,29.012 C7.934,29.018 8.992,28.74 9.935,28.174 L10.282,27.966 C10.774,27.67 11.325,27.524 11.877,27.518 C12.429,27.524 12.98,27.67 13.473,27.966 L14.186,28.394 C15.088,28.935 16.11,29.167 17.12,29.112 C17.21,29.108 17.3,29.108 17.391,29.1 C17.402,29.099 17.412,29.093 17.424,29.092 C18.107,29.015 18.777,28.8 19.395,28.448 C19.453,28.427 19.515,28.426 19.569,28.394 L20.282,27.966 C20.774,27.67 21.325,27.524 21.877,27.518 C22.429,27.524 22.98,27.67 23.473,27.966 L24.186,28.394 C24.943,28.847 25.785,29.082 26.632,29.117 C26.649,29.118 26.667,29.12 26.684,29.12 C26.976,29.129 27.268,29.12 27.558,29.079 C27.724,29.058 27.885,29.016 28.048,28.979 C28.127,28.96 28.206,28.943 28.284,28.92 C28.728,28.797 29.163,28.636 29.568,28.393 L29.568,28.393 L30.281,27.965 C30.773,27.669 31.324,27.523 31.876,27.517 C32.428,27.523 32.979,27.669 33.472,27.965 L34.185,28.393 C35.011,28.888 35.938,29.131 36.864,29.127 C36.879,29.127 36.895,29.13 36.91,29.13 C37.808,29.13 38.707,28.896 39.513,28.426 L41.475,27.554 C41.517,27.535 41.547,27.499 41.586,27.475 L41.739,27.407 L40.074,51.313 Z" id="Shape"></path>
                    <path d="M6.911,43.004 L13.911,43.004 C14.463,43.004 14.911,42.557 14.911,42.004 C14.911,41.451 14.463,41.004 13.911,41.004 L6.911,41.004 C6.359,41.004 5.911,41.451 5.911,42.004 C5.911,42.557 6.359,43.004 6.911,43.004 Z" id="Shape"></path>
                    <path d="M6.911,47.004 L15.911,47.004 C16.463,47.004 16.911,46.557 16.911,46.004 C16.911,45.451 16.463,45.004 15.911,45.004 L6.911,45.004 C6.359,45.004 5.911,45.451 5.911,46.004 C5.911,46.557 6.359,47.004 6.911,47.004 Z" id="Shape"></path>
                    <path d="M17.911,49.004 L6.911,49.004 C6.359,49.004 5.911,49.451 5.911,50.004 C5.911,50.557 6.359,51.004 6.911,51.004 L17.911,51.004 C18.463,51.004 18.911,50.557 18.911,50.004 C18.911,49.451 18.463,49.004 17.911,49.004 Z" id="Shape"></path>
                    <path d="M23.911,49.004 L21.911,49.004 C21.359,49.004 20.911,49.451 20.911,50.004 C20.911,50.557 21.359,51.004 21.911,51.004 L23.911,51.004 C24.463,51.004 24.911,50.557 24.911,50.004 C24.911,49.451 24.463,49.004 23.911,49.004 Z" id="Shape"></path>
                </g>
            </g>
        </g>
    </g>
</svg>