<?xml version="1.0" encoding="UTF-8"?>
<!-- Generator: Adobe Illustrator 19.0.0, SVG Export Plug-In . SVG Version: 6.00 Build 0)  -->
<svg version="1.1" id="Layer_1" xmlns="http://www.w3.org/2000/svg" xmlns:xlink="http://www.w3.org/1999/xlink" x="0px" y="0px" viewBox="0 0 96 96" style="enable-background:new 0 0 96 96;" xml:space="preserve">
<style type="text/css">
	.st0{fill:#333333;}
</style>
<g id="XMLID_6_">
	<path id="XMLID_11_" class="st0" d="M75.1,26.5l-4.4-5.3c-0.9-1-2.2-1.7-3.7-1.7H29c-1.5,0-2.8,0.7-3.7,1.7L21,26.5   c-0.9,1.1-1.5,2.5-1.5,4v39.6c0,3.5,2.8,6.3,6.3,6.3h44.3c3.5,0,6.3-2.8,6.3-6.3V30.6C76.5,29,76,27.7,75.1,26.5z M48,65.4L30.6,48   h11.1v-6.3h12.7V48h11.1L48,65.4z M26.2,25.8l2.6-3.2h38l3,3.2H26.2z"/>
</g>
</svg>