<?xml version="1.0" encoding="utf-8"?>
<!-- Generator: Adobe Illustrator 19.0.0, SVG Export Plug-In . SVG Version: 6.00 Build 0)  -->
<svg version="1.1" id="Layer_1" xmlns="http://www.w3.org/2000/svg" xmlns:xlink="http://www.w3.org/1999/xlink" x="0px" y="0px"
	 viewBox="0 0 96 96" style="enable-background:new 0 0 96 96;" xml:space="preserve">
<style type="text/css">
	.st0{fill:#E0E0D1;}
	.st1{fill:#BAB9AE;}
	.st2{fill:#4F5D73;}
</style>
<g id="XMLID_1_">
	<path id="XMLID_3_" class="st0" d="M48,15.5c17.9,0,32.5,14.6,32.5,32.5S65.9,80.5,48,80.5c-17.9,0-32.5-14.6-32.5-32.5
		S30.1,15.5,48,15.5"/>
	<path id="XMLID_6_" class="st1" d="M39.1,38.9c-2.8,0-5.2,2.4-5.2,5.4c0,2.9,2.3,5.4,5.2,5.4c0.9,0,1.7-0.3,2.7-0.7
		c-0.3,2.8-1.7,7-7.1,11.3c-0.7,0.6-0.9,1.6-0.3,2.4c0.3,0.5,0.8,0.7,1.3,0.7c0.3,0,0.7-0.2,1-0.4c6.6-5.2,8.2-10.6,8.4-14.1
		c0.4-4.6-1-7-2.3-8.2c-0.2-0.2-0.3-0.3-0.4-0.4c-0.3-0.3-0.6-0.5-0.8-0.6c-0.1,0-0.1,0-0.1,0c-0.4-0.2-0.6-0.3-0.6-0.3
		C40.3,39.1,39.7,38.9,39.1,38.9 M56.3,38.8c-2.8,0-5.2,2.4-5.2,5.4c0,2.9,2.3,5.4,5.2,5.4c0.9,0,1.8-0.3,2.5-0.7
		c-0.3,2.8-1.7,7-7.1,11.3c-0.7,0.6-0.9,1.6-0.3,2.4c0.3,0.5,0.8,0.7,1.3,0.7c0.3,0,0.7-0.2,1-0.4c6.6-5.2,8.2-10.6,8.4-14.1
		c0.3-4.6-1.1-6.9-2.1-8.2c-0.2-0.2-0.3-0.3-0.4-0.4c-0.3-0.3-0.6-0.5-0.8-0.6c-0.1,0-0.1,0-0.1,0c-0.4-0.2-0.6-0.3-0.6-0.3
		C57.5,39,56.9,38.8,56.3,38.8"/>
	<path id="XMLID_9_" class="st2" d="M62.2,46.7c-0.2,3.6-1.8,8.9-8.4,14.1c-0.3,0.2-0.7,0.4-1,0.4c-0.5,0-1-0.2-1.3-0.7
		c-0.6-0.8-0.4-1.8,0.3-2.4c5.4-4.3,6.8-8.4,7.1-11.3c-0.7,0.4-1.6,0.7-2.5,0.7c-2.8,0-5.2-2.4-5.2-5.4c0-2.9,2.3-5.4,5.2-5.4
		c0.6,0,1.2,0.2,1.8,0.4c0,0,0.2,0.1,0.6,0.3c0,0,0,0,0.1,0c0.2,0.1,0.5,0.3,0.8,0.6c0.1,0.1,0.2,0.2,0.4,0.4
		C61.1,39.8,62.5,42.1,62.2,46.7z M39.1,47.6c-2.8,0-5.2-2.4-5.2-5.4c0-2.9,2.3-5.4,5.2-5.4c0.6,0,1.2,0.2,1.8,0.4
		c0,0,0.2,0.1,0.6,0.3c0,0,0,0,0.1,0c0.2,0.1,0.5,0.3,0.8,0.6c0.1,0.1,0.2,0.2,0.4,0.4c1.3,1.2,2.7,3.7,2.3,8.2
		c-0.2,3.6-1.8,8.9-8.4,14.1c-0.3,0.2-0.7,0.4-1,0.4c-0.5,0-1-0.2-1.3-0.7c-0.6-0.8-0.4-1.8,0.3-2.4c5.4-4.3,6.8-8.4,7.1-11.3
		C40.8,47.3,40,47.6,39.1,47.6z"/>
</g>
</svg>
